<?xml version="1.0" encoding="utf-8"?>
<COLLADA xmlns="http://www.collada.org/2005/11/COLLADASchema" version="1.4.1">
  <asset>
    <contributor>
      <authoring_tool>Fusion URDF/XACRO Exporter</authoring_tool>
    </contributor>
    <created>2026-05-12T14:25:33Z</created>
    <modified>2026-05-12T14:25:33Z</modified>
    <unit name="meter" meter="1.0"/>
    <up_axis>Z_UP</up_axis>
  </asset>
  <library_effects>
    <effect id="Opaque_254_101_27_-effect">
      <profile_COMMON>
        <technique sid="common">
          <lambert>
            <emission><color>0 0 0 1</color></emission>
            <ambient><color>0.0000 0.0000 0.0000 1</color></ambient>
            <diffuse><color>0.9961 0.3961 0.1059 1</color></diffuse>
            <reflective><color>0 0 0 1</color></reflective>
            <transparent opaque="A_ONE"><color>1 1 1 1</color></transparent>
            <transparency><float>1</float></transparency>
          </lambert>
        </technique>
      </profile_COMMON>
    </effect>
  </library_effects>
  <library_materials>
    <material id="Opaque_254_101_27_" name="Opaque(254,101,27)">
      <instance_effect url="#Opaque_254_101_27_-effect"/>
    </material>
  </library_materials>
  <library_geometries>
    <geometry id="lidar-mesh" name="lidar">
      <mesh>
        <source id="lidar-mesh-positions">
          <float_array id="lidar-mesh-positions-array" count="1626">-0.034850 0.000000 -0.007300 -0.034786 -0.002104 -0.007300 -0.034596 -0.004201 -0.007300 -0.034279 -0.006282 -0.007300 -0.033837 -0.008340 -0.007300 -0.033272 -0.010368 -0.007300 -0.032585 -0.012358 -0.007300 -0.031780 -0.014303 -0.007300 -0.030858 -0.016196 -0.007300 -0.029824 -0.018029 -0.007300 -0.028681 -0.019797 -0.007300 -0.027433 -0.021493 -0.007300 -0.026086 -0.023110 -0.007300 -0.024643 -0.024643 -0.007300 -0.023110 -0.026086 -0.007300 -0.021493 -0.027433 -0.007300 -0.019797 -0.028681 -0.007300 -0.018029 -0.029824 -0.007300 -0.016196 -0.030858 -0.007300 -0.014303 -0.031780 -0.007300 -0.012358 -0.032585 -0.007300 -0.010368 -0.033272 -0.007300 -0.008340 -0.033837 -0.007300 -0.006282 -0.034279 -0.007300 -0.004201 -0.034596 -0.007300 -0.002104 -0.034786 -0.007300 0.000000 -0.034850 -0.007300 0.002104 -0.034786 -0.007300 0.004201 -0.034596 -0.007300 0.006282 -0.034279 -0.007300 0.008340 -0.033837 -0.007300 0.010368 -0.033272 -0.007300 0.012358 -0.032585 -0.007300 0.014303 -0.031780 -0.007300 0.016196 -0.030858 -0.007300 0.018029 -0.029824 -0.007300 0.019797 -0.028681 -0.007300 0.021493 -0.027433 -0.007300 0.023110 -0.026086 -0.007300 0.024643 -0.024643 -0.007300 0.026086 -0.023110 -0.007300 0.027433 -0.021493 -0.007300 0.028681 -0.019797 -0.007300 0.029824 -0.018029 -0.007300 0.030858 -0.016196 -0.007300 0.031780 -0.014303 -0.007300 0.032585 -0.012358 -0.007300 0.033272 -0.010368 -0.007300 0.033837 -0.008340 -0.007300 0.034279 -0.006282 -0.007300 0.034596 -0.004201 -0.007300 0.034786 -0.002104 -0.007300 0.034850 0.000000 -0.007300 0.034786 0.002104 -0.007300 0.034596 0.004201 -0.007300 0.034279 0.006282 -0.007300 0.033837 0.008340 -0.007300 0.033272 0.010368 -0.007300 0.032585 0.012358 -0.007300 0.031780 0.014303 -0.007300 0.030858 0.016196 -0.007300 0.029824 0.018029 -0.007300 0.028681 0.019797 -0.007300 0.027433 0.021493 -0.007300 0.026086 0.023110 -0.007300 0.024643 0.024643 -0.007300 0.023110 0.026086 -0.007300 0.021493 0.027433 -0.007300 0.019797 0.028681 -0.007300 0.018029 0.029824 -0.007300 0.016196 0.030858 -0.007300 0.014303 0.031780 -0.007300 0.012358 0.032585 -0.007300 0.010368 0.033272 -0.007300 0.008340 0.033837 -0.007300 0.006282 0.034279 -0.007300 0.004201 0.034596 -0.007300 0.002104 0.034786 -0.007300 0.000000 0.034850 -0.007300 -0.002104 0.034786 -0.007300 -0.004201 0.034596 -0.007300 -0.006282 0.034279 -0.007300 -0.008340 0.033837 -0.007300 -0.010368 0.033272 -0.007300 -0.012358 0.032585 -0.007300 -0.014303 0.031780 -0.007300 -0.016196 0.030858 -0.007300 -0.018029 0.029824 -0.007300 -0.019797 0.028681 -0.007300 -0.021493 0.027433 -0.007300 -0.023110 0.026086 -0.007300 -0.024643 0.024643 -0.007300 -0.026086 0.023110 -0.007300 -0.027433 0.021493 -0.007300 -0.028681 0.019797 -0.007300 -0.029824 0.018029 -0.007300 -0.030858 0.016196 -0.007300 -0.031780 0.014303 -0.007300 -0.032585 0.012358 -0.007300 -0.033272 0.010368 -0.007300 -0.033837 0.008340 -0.007300 -0.034279 0.006282 -0.007300 -0.034596 0.004201 -0.007300 -0.034786 0.002104 -0.007300 -0.034850 -0.000000 0.001500 -0.034786 0.002104 0.001500 -0.034596 0.004201 0.001500 -0.034279 0.006282 0.001500 -0.033837 0.008340 0.001500 -0.033272 0.010368 0.001500 -0.032585 0.012358 0.001500 -0.031780 0.014303 0.001500 -0.030858 0.016196 0.001500 -0.029824 0.018029 0.001500 -0.028681 0.019797 0.001500 -0.027433 0.021493 0.001500 -0.026086 0.023110 0.001500 -0.024643 0.024643 0.001500 -0.023110 0.026086 0.001500 -0.021493 0.027433 0.001500 -0.019797 0.028681 0.001500 -0.018029 0.029824 0.001500 -0.016196 0.030858 0.001500 -0.014303 0.031780 0.001500 -0.012358 0.032585 0.001500 -0.010368 0.033272 0.001500 -0.008340 0.033837 0.001500 -0.006282 0.034279 0.001500 -0.004201 0.034596 0.001500 -0.002104 0.034786 0.001500 0.000000 0.034850 0.001500 0.002104 0.034786 0.001500 0.004201 0.034596 0.001500 0.006282 0.034279 0.001500 0.008340 0.033837 0.001500 0.010368 0.033272 0.001500 0.012358 0.032585 0.001500 0.014303 0.031780 0.001500 0.016196 0.030858 0.001500 0.018029 0.029824 0.001500 0.019797 0.028681 0.001500 0.021493 0.027433 0.001500 0.023110 0.026086 0.001500 0.024643 0.024643 0.001500 0.026086 0.023110 0.001500 0.027433 0.021493 0.001500 0.028681 0.019797 0.001500 0.029824 0.018029 0.001500 0.030858 0.016196 0.001500 0.031780 0.014303 0.001500 0.032585 0.012358 0.001500 0.033272 0.010368 0.001500 0.033837 0.008340 0.001500 0.034279 0.006282 0.001500 0.034596 0.004201 0.001500 0.034786 0.002104 0.001500 0.034850 0.000000 0.001500 0.034786 -0.002104 0.001500 0.034596 -0.004201 0.001500 0.034279 -0.006282 0.001500 0.033837 -0.008340 0.001500 0.033272 -0.010368 0.001500 0.032585 -0.012358 0.001500 0.031780 -0.014303 0.001500 0.030858 -0.016196 0.001500 0.029824 -0.018029 0.001500 0.028681 -0.019797 0.001500 0.027433 -0.021493 0.001500 0.026086 -0.023110 0.001500 0.024643 -0.024643 0.001500 0.023110 -0.026086 0.001500 0.021493 -0.027433 0.001500 0.019797 -0.028681 0.001500 0.018029 -0.029824 0.001500 0.016196 -0.030858 0.001500 0.014303 -0.031780 0.001500 0.012358 -0.032585 0.001500 0.010368 -0.033272 0.001500 0.008340 -0.033837 0.001500 0.006282 -0.034279 0.001500 0.004201 -0.034596 0.001500 0.002104 -0.034786 0.001500 0.000000 -0.034850 0.001500 -0.002104 -0.034786 0.001500 -0.004201 -0.034596 0.001500 -0.006282 -0.034279 0.001500 -0.008340 -0.033837 0.001500 -0.010368 -0.033272 0.001500 -0.012358 -0.032585 0.001500 -0.014303 -0.031780 0.001500 -0.016196 -0.030858 0.001500 -0.018029 -0.029824 0.001500 -0.019797 -0.028681 0.001500 -0.021493 -0.027433 0.001500 -0.023110 -0.026086 0.001500 -0.024643 -0.024643 0.001500 -0.026086 -0.023110 0.001500 -0.027433 -0.021493 0.001500 -0.028681 -0.019797 0.001500 -0.029824 -0.018029 0.001500 -0.030858 -0.016196 0.001500 -0.031780 -0.014303 0.001500 -0.032585 -0.012358 0.001500 -0.033272 -0.010368 0.001500 -0.033837 -0.008340 0.001500 -0.034279 -0.006282 0.001500 -0.034596 -0.004201 0.001500 -0.034786 -0.002104 0.001500 -0.034350 0.000000 0.001500 -0.034286 0.002094 0.001500 -0.034095 0.004180 0.001500 -0.033776 0.006251 0.001500 -0.033332 0.008299 0.001500 -0.032765 0.010315 0.001500 -0.032075 0.012294 0.001500 -0.031266 0.014226 0.001500 -0.030340 0.016106 0.001500 -0.029302 0.017925 0.001500 -0.028155 0.019679 0.001500 -0.026903 0.021358 0.001500 -0.025550 0.022959 0.001500 -0.024103 0.024474 0.001500 -0.022566 0.025898 0.001500 -0.020946 0.027225 0.001500 -0.019247 0.028451 0.001500 -0.017477 0.029572 0.001500 -0.015641 0.030582 0.001500 -0.013748 0.031479 0.001500 -0.011803 0.032258 0.001500 -0.009815 0.032918 0.001500 -0.007789 0.033455 0.001500 -0.005735 0.033868 0.001500 -0.003660 0.034154 0.001500 -0.001571 0.034314 0.001500 0.000524 0.034346 0.001500 0.002617 0.034250 0.001500 0.004700 0.034027 0.001500 0.006766 0.033677 0.001500 0.008806 0.033202 0.001500 0.010814 0.032603 0.001500 0.012781 0.031884 0.001500 0.014701 0.031045 0.001500 0.016567 0.030091 0.001500 0.018370 0.029025 0.001500 0.020106 0.027851 0.001500 0.021766 0.026574 0.001500 0.023346 0.025197 0.001500 0.024838 0.023727 0.001500 0.026239 0.022169 0.001500 0.027541 0.020528 0.001500 0.028742 0.018811 0.001500 0.029835 0.017024 0.001500 0.030817 0.015173 0.001500 0.031685 0.013266 0.001500 0.032435 0.011310 0.001500 0.033064 0.009311 0.001500 0.033570 0.007278 0.001500 0.033951 0.005218 0.001500 0.034206 0.003139 0.001500 0.034334 0.001048 0.001500 0.034334 -0.001048 0.001500 0.034206 -0.003139 0.001500 0.033951 -0.005218 0.001500 0.033570 -0.007278 0.001500 0.033064 -0.009311 0.001500 0.032435 -0.011310 0.001500 0.031685 -0.013266 0.001500 0.030817 -0.015173 0.001500 0.029835 -0.017024 0.001500 0.028742 -0.018811 0.001500 0.027541 -0.020528 0.001500 0.026239 -0.022169 0.001500 0.024838 -0.023727 0.001500 0.023346 -0.025197 0.001500 0.021766 -0.026574 0.001500 0.020106 -0.027851 0.001500 0.018370 -0.029025 0.001500 0.016567 -0.030091 0.001500 0.014701 -0.031045 0.001500 0.012781 -0.031884 0.001500 0.010814 -0.032603 0.001500 0.008806 -0.033202 0.001500 0.006766 -0.033677 0.001500 0.004700 -0.034027 0.001500 0.002617 -0.034250 0.001500 0.000524 -0.034346 0.001500 -0.001571 -0.034314 0.001500 -0.003660 -0.034154 0.001500 -0.005735 -0.033868 0.001500 -0.007789 -0.033455 0.001500 -0.009815 -0.032918 0.001500 -0.011803 -0.032258 0.001500 -0.013748 -0.031479 0.001500 -0.015641 -0.030582 0.001500 -0.017477 -0.029572 0.001500 -0.019247 -0.028451 0.001500 -0.020946 -0.027225 0.001500 -0.022566 -0.025898 0.001500 -0.024103 -0.024474 0.001500 -0.025550 -0.022959 0.001500 -0.026903 -0.021358 0.001500 -0.028155 -0.019679 0.001500 -0.029302 -0.017925 0.001500 -0.030340 -0.016106 0.001500 -0.031266 -0.014226 0.001500 -0.032075 -0.012294 0.001500 -0.032765 -0.010315 0.001500 -0.033332 -0.008299 0.001500 -0.033776 -0.006251 0.001500 -0.034095 -0.004180 0.001500 -0.034286 -0.002094 0.001500 0.005877 -0.001974 0.018500 0.006371 -0.001993 0.018500 0.006854 -0.001890 0.018500 0.007297 -0.001672 0.018500 0.007673 -0.001352 0.018500 0.007960 -0.000950 0.018500 0.008139 -0.000490 0.018500 0.008200 -0.000000 0.018500 0.008139 0.000490 0.018500 0.007960 0.000950 0.018500 0.007673 0.001352 0.018500 0.007297 0.001672 0.018500 0.006854 0.001890 0.018500 0.006371 0.001993 0.018500 0.005877 0.001974 0.018500 0.005877 0.001974 0.017200 0.006371 0.001993 0.017200 0.006854 0.001890 0.017200 0.007297 0.001672 0.017200 0.007673 0.001352 0.017200 0.007960 0.000950 0.017200 0.008139 0.000490 0.017200 0.008200 -0.000000 0.017200 0.008139 -0.000490 0.017200 0.007960 -0.000950 0.017200 0.007673 -0.001352 0.017200 0.007297 -0.001672 0.017200 0.006854 -0.001890 0.017200 0.006371 -0.001993 0.017200 0.005877 -0.001974 0.017200 0.005549 0.002767 0.018500 0.005113 0.003506 0.018500 0.004580 0.004179 0.018500 0.003959 0.004771 0.018500 0.003262 0.005272 0.018500 0.002503 0.005672 0.018500 0.001696 0.005964 0.018500 0.000856 0.006141 0.018500 -0.000000 0.006200 0.018500 -0.000856 0.006141 0.018500 -0.001696 0.005964 0.018500 -0.002503 0.005672 0.018500 -0.003262 0.005272 0.018500 -0.003959 0.004771 0.018500 -0.004580 0.004179 0.018500 -0.005113 0.003506 0.018500 -0.005549 0.002767 0.018500 -0.005877 0.001974 0.018500 -0.005877 0.001974 0.017200 -0.005549 0.002767 0.017200 -0.005113 0.003506 0.017200 -0.004580 0.004179 0.017200 -0.003959 0.004771 0.017200 -0.003262 0.005272 0.017200 -0.002503 0.005672 0.017200 -0.001696 0.005964 0.017200 -0.000856 0.006141 0.017200 -0.000000 0.006200 0.017200 0.000856 0.006141 0.017200 0.001696 0.005964 0.017200 0.002503 0.005672 0.017200 0.003262 0.005272 0.017200 0.003959 0.004771 0.017200 0.004580 0.004179 0.017200 0.005113 0.003506 0.017200 0.005549 0.002767 0.017200 -0.006371 0.001993 0.018500 -0.006854 0.001890 0.018500 -0.007297 0.001672 0.018500 -0.007673 0.001352 0.018500 -0.007960 0.000950 0.018500 -0.008139 0.000490 0.018500 -0.008200 0.000000 0.018500 -0.008139 -0.000490 0.018500 -0.007960 -0.000950 0.018500 -0.007673 -0.001352 0.018500 -0.007297 -0.001672 0.018500 -0.006854 -0.001890 0.018500 -0.006371 -0.001993 0.018500 -0.005877 -0.001974 0.018500 -0.005877 -0.001974 0.017200 -0.006371 -0.001993 0.017200 -0.006854 -0.001890 0.017200 -0.007297 -0.001672 0.017200 -0.007673 -0.001352 0.017200 -0.007960 -0.000950 0.017200 -0.008139 -0.000490 0.017200 -0.008200 0.000000 0.017200 -0.008139 0.000490 0.017200 -0.007960 0.000950 0.017200 -0.007673 0.001352 0.017200 -0.007297 0.001672 0.017200 -0.006854 0.001890 0.017200 -0.006371 0.001993 0.017200 -0.005549 -0.002767 0.018500 -0.005113 -0.003506 0.018500 -0.004580 -0.004179 0.018500 -0.003959 -0.004771 0.018500 -0.003262 -0.005272 0.018500 -0.002503 -0.005672 0.018500 -0.001696 -0.005964 0.018500 -0.000856 -0.006141 0.018500 -0.000000 -0.006200 0.018500 0.000856 -0.006141 0.018500 0.001696 -0.005964 0.018500 0.002503 -0.005672 0.018500 0.003262 -0.005272 0.018500 0.003959 -0.004771 0.018500 0.004580 -0.004179 0.018500 0.005113 -0.003506 0.018500 0.005549 -0.002767 0.018500 0.005549 -0.002767 0.017200 0.005113 -0.003506 0.017200 0.004580 -0.004179 0.017200 0.003959 -0.004771 0.017200 0.003262 -0.005272 0.017200 0.002503 -0.005672 0.017200 0.001696 -0.005964 0.017200 0.000856 -0.006141 0.017200 -0.000000 -0.006200 0.017200 -0.000856 -0.006141 0.017200 -0.001696 -0.005964 0.017200 -0.002503 -0.005672 0.017200 -0.003262 -0.005272 0.017200 -0.003959 -0.004771 0.017200 -0.004580 -0.004179 0.017200 -0.005113 -0.003506 0.017200 -0.005549 -0.002767 0.017200 -0.034350 -0.000000 0.018500 -0.034286 0.002094 0.018500 -0.034095 0.004180 0.018500 -0.033776 0.006251 0.018500 -0.033332 0.008299 0.018500 -0.032765 0.010315 0.018500 -0.032075 0.012294 0.018500 -0.031266 0.014226 0.018500 -0.030340 0.016106 0.018500 -0.029302 0.017925 0.018500 -0.028155 0.019679 0.018500 -0.026903 0.021358 0.018500 -0.025550 0.022959 0.018500 -0.024103 0.024474 0.018500 -0.022566 0.025898 0.018500 -0.020946 0.027225 0.018500 -0.019247 0.028451 0.018500 -0.017477 0.029572 0.018500 -0.015641 0.030582 0.018500 -0.013748 0.031479 0.018500 -0.011803 0.032258 0.018500 -0.009815 0.032918 0.018500 -0.007789 0.033455 0.018500 -0.005735 0.033868 0.018500 -0.003660 0.034154 0.018500 -0.001571 0.034314 0.018500 0.000524 0.034346 0.018500 0.002617 0.034250 0.018500 0.004700 0.034027 0.018500 0.006766 0.033677 0.018500 0.008806 0.033202 0.018500 0.010814 0.032603 0.018500 0.012781 0.031884 0.018500 0.014701 0.031045 0.018500 0.016567 0.030091 0.018500 0.018370 0.029025 0.018500 0.020106 0.027851 0.018500 0.021766 0.026574 0.018500 0.023346 0.025197 0.018500 0.024838 0.023727 0.018500 0.026239 0.022169 0.018500 0.027541 0.020528 0.018500 0.028742 0.018811 0.018500 0.029835 0.017024 0.018500 0.030817 0.015173 0.018500 0.031685 0.013266 0.018500 0.032435 0.011310 0.018500 0.033064 0.009311 0.018500 0.033570 0.007278 0.018500 0.033951 0.005218 0.018500 0.034206 0.003139 0.018500 0.034334 0.001048 0.018500 0.034334 -0.001048 0.018500 0.034206 -0.003139 0.018500 0.033951 -0.005218 0.018500 0.033570 -0.007278 0.018500 0.033064 -0.009311 0.018500 0.032435 -0.011310 0.018500 0.031685 -0.013266 0.018500 0.030817 -0.015173 0.018500 0.029835 -0.017024 0.018500 0.028742 -0.018811 0.018500 0.027541 -0.020528 0.018500 0.026239 -0.022169 0.018500 0.024838 -0.023727 0.018500 0.023346 -0.025197 0.018500 0.021766 -0.026574 0.018500 0.020106 -0.027851 0.018500 0.018370 -0.029025 0.018500 0.016567 -0.030091 0.018500 0.014701 -0.031045 0.018500 0.012781 -0.031884 0.018500 0.010814 -0.032603 0.018500 0.008806 -0.033202 0.018500 0.006766 -0.033677 0.018500 0.004700 -0.034027 0.018500 0.002617 -0.034250 0.018500 0.000524 -0.034346 0.018500 -0.001571 -0.034314 0.018500 -0.003660 -0.034154 0.018500 -0.005735 -0.033868 0.018500 -0.007789 -0.033455 0.018500 -0.009815 -0.032918 0.018500 -0.011803 -0.032258 0.018500 -0.013748 -0.031479 0.018500 -0.015641 -0.030582 0.018500 -0.017477 -0.029572 0.018500 -0.019247 -0.028451 0.018500 -0.020946 -0.027225 0.018500 -0.022566 -0.025898 0.018500 -0.024103 -0.024474 0.018500 -0.025550 -0.022959 0.018500 -0.026903 -0.021358 0.018500 -0.028155 -0.019679 0.018500 -0.029302 -0.017925 0.018500 -0.030340 -0.016106 0.018500 -0.031266 -0.014226 0.018500 -0.032075 -0.012294 0.018500 -0.032765 -0.010315 0.018500 -0.033332 -0.008299 0.018500 -0.033776 -0.006251 0.018500 -0.034095 -0.004180 0.018500 -0.034286 -0.002094 0.018500</float_array>
          <technique_common>
            <accessor source="#lidar-mesh-positions-array" count="542" stride="3">
              <param name="X" type="float"/>
              <param name="Y" type="float"/>
              <param name="Z" type="float"/>
            </accessor>
          </technique_common>
        </source>
        <source id="lidar-mesh-normals">
          <float_array id="lidar-mesh-normals-array" count="3276">-0.998176 -0.060378 0.000000 -0.998176 -0.060378 0.000000 -1.000000 -0.000000 0.000000 -1.000000 -0.000000 0.000000 -0.998176 0.060378 -0.000000 -0.998176 0.060378 -0.000000 -0.992709 0.120537 -0.000000 -0.992709 0.120537 -0.000000 -0.983620 0.180255 -0.000000 -0.983620 0.180255 -0.000000 -0.970942 0.239316 -0.000000 -0.970942 0.239316 -0.000000 -0.954721 0.297503 -0.000000 -0.954721 0.297503 -0.000000 -0.935016 0.354605 -0.000000 -0.935016 0.354605 -0.000000 -0.911900 0.410413 -0.000000 -0.911900 0.410413 -0.000000 -0.885456 0.464723 -0.000000 -0.885456 0.464723 -0.000000 -0.855781 0.517338 -0.000000 -0.855781 0.517338 -0.000000 -0.822984 0.568065 -0.000000 -0.822984 0.568065 -0.000000 -0.787183 0.616719 -0.000000 -0.787183 0.616719 -0.000000 -0.748511 0.663123 -0.000000 -0.748511 0.663123 -0.000000 -0.707107 0.707107 -0.000000 -0.707107 0.707107 -0.000000 -0.663123 0.748511 -0.000000 -0.663123 0.748511 -0.000000 -0.616719 0.787183 -0.000000 -0.616719 0.787183 -0.000000 -0.568065 0.822984 -0.000000 -0.568065 0.822984 -0.000000 -0.517338 0.855781 -0.000000 -0.517338 0.855781 -0.000000 -0.464723 0.885456 -0.000000 -0.464723 0.885456 -0.000000 -0.410413 0.911900 -0.000000 -0.410413 0.911900 -0.000000 -0.354605 0.935016 -0.000000 -0.354605 0.935016 -0.000000 -0.297503 0.954721 -0.000000 -0.297503 0.954721 -0.000000 -0.239316 0.970942 -0.000000 -0.239316 0.970942 -0.000000 -0.180255 0.983620 -0.000000 -0.180255 0.983620 -0.000000 -0.120537 0.992709 -0.000000 -0.120537 0.992709 -0.000000 -0.060378 0.998176 -0.000000 -0.060378 0.998176 -0.000000 0.000000 1.000000 -0.000000 0.000000 1.000000 -0.000000 0.060378 0.998176 -0.000000 0.060378 0.998176 -0.000000 0.120537 0.992709 -0.000000 0.120537 0.992709 -0.000000 0.180255 0.983620 -0.000000 0.180255 0.983620 -0.000000 0.239316 0.970942 -0.000000 0.239316 0.970942 -0.000000 0.297503 0.954721 -0.000000 0.297503 0.954721 -0.000000 0.354605 0.935016 -0.000000 0.354605 0.935016 -0.000000 0.410413 0.911900 -0.000000 0.410413 0.911900 -0.000000 0.464723 0.885456 -0.000000 0.464723 0.885456 -0.000000 0.517338 0.855781 -0.000000 0.517338 0.855781 -0.000000 0.568065 0.822984 -0.000000 0.568065 0.822984 -0.000000 0.616719 0.787183 -0.000000 0.616719 0.787183 -0.000000 0.663123 0.748511 -0.000000 0.663123 0.748511 -0.000000 0.707107 0.707107 -0.000000 0.707107 0.707107 -0.000000 0.748511 0.663123 -0.000000 0.748511 0.663123 -0.000000 0.787183 0.616719 -0.000000 0.787183 0.616719 -0.000000 0.822984 0.568065 -0.000000 0.822984 0.568065 -0.000000 0.855781 0.517338 -0.000000 0.855781 0.517338 -0.000000 0.885456 0.464723 -0.000000 0.885456 0.464723 -0.000000 0.911900 0.410413 -0.000000 0.911900 0.410413 -0.000000 0.935016 0.354605 -0.000000 0.935016 0.354605 -0.000000 0.954721 0.297503 -0.000000 0.954721 0.297503 -0.000000 0.970942 0.239316 -0.000000 0.970942 0.239316 -0.000000 0.983620 0.180255 -0.000000 0.983620 0.180255 -0.000000 0.992709 0.120537 -0.000000 0.992709 0.120537 -0.000000 0.998176 0.060378 -0.000000 0.998176 0.060378 -0.000000 1.000000 -0.000000 -0.000000 1.000000 -0.000000 -0.000000 0.998176 -0.060378 -0.000000 0.998176 -0.060378 -0.000000 0.992709 -0.120537 -0.000000 0.992709 -0.120537 -0.000000 0.983620 -0.180255 -0.000000 0.983620 -0.180255 -0.000000 0.970942 -0.239316 -0.000000 0.970942 -0.239316 -0.000000 0.954721 -0.297503 -0.000000 0.954721 -0.297503 -0.000000 0.935016 -0.354605 -0.000000 0.935016 -0.354605 -0.000000 0.911900 -0.410413 -0.000000 0.911900 -0.410413 -0.000000 0.885456 -0.464723 -0.000000 0.885456 -0.464723 -0.000000 0.855781 -0.517338 -0.000000 0.855781 -0.517338 -0.000000 0.822984 -0.568065 -0.000000 0.822984 -0.568065 -0.000000 0.787183 -0.616719 -0.000000 0.787183 -0.616719 -0.000000 0.748511 -0.663123 -0.000000 0.748511 -0.663123 -0.000000 0.707107 -0.707107 -0.000000 0.707107 -0.707107 -0.000000 0.663123 -0.748511 -0.000000 0.663123 -0.748511 -0.000000 0.616719 -0.787183 -0.000000 0.616719 -0.787183 -0.000000 0.568065 -0.822984 -0.000000 0.568065 -0.822984 -0.000000 0.517338 -0.855781 -0.000000 0.517338 -0.855781 -0.000000 0.464723 -0.885456 -0.000000 0.464723 -0.885456 -0.000000 0.410413 -0.911900 -0.000000 0.410413 -0.911900 -0.000000 0.354605 -0.935016 -0.000000 0.354605 -0.935016 -0.000000 0.297503 -0.954721 -0.000000 0.297503 -0.954721 -0.000000 0.239316 -0.970942 -0.000000 0.239316 -0.970942 -0.000000 0.180255 -0.983620 -0.000000 0.180255 -0.983620 -0.000000 0.120537 -0.992709 -0.000000 0.120537 -0.992709 -0.000000 0.060378 -0.998176 -0.000000 0.060378 -0.998176 -0.000000 0.000000 -1.000000 -0.000000 0.000000 -1.000000 -0.000000 -0.060378 -0.998176 0.000000 -0.060378 -0.998176 0.000000 -0.120537 -0.992709 0.000000 -0.120537 -0.992709 0.000000 -0.180255 -0.983620 0.000000 -0.180255 -0.983620 0.000000 -0.239316 -0.970942 0.000000 -0.239316 -0.970942 0.000000 -0.297503 -0.954721 0.000000 -0.297503 -0.954721 0.000000 -0.354605 -0.935016 0.000000 -0.354605 -0.935016 0.000000 -0.410413 -0.911900 0.000000 -0.410413 -0.911900 0.000000 -0.464723 -0.885456 0.000000 -0.464723 -0.885456 0.000000 -0.517338 -0.855781 0.000000 -0.517338 -0.855781 0.000000 -0.568065 -0.822984 0.000000 -0.568065 -0.822984 0.000000 -0.616719 -0.787183 0.000000 -0.616719 -0.787183 0.000000 -0.663123 -0.748511 0.000000 -0.663123 -0.748511 0.000000 -0.707107 -0.707107 0.000000 -0.707107 -0.707107 0.000000 -0.748511 -0.663123 0.000000 -0.748511 -0.663123 0.000000 -0.787183 -0.616719 0.000000 -0.787183 -0.616719 0.000000 -0.822984 -0.568065 0.000000 -0.822984 -0.568065 0.000000 -0.855781 -0.517338 0.000000 -0.855781 -0.517338 0.000000 -0.885456 -0.464723 0.000000 -0.885456 -0.464723 0.000000 -0.911900 -0.410413 0.000000 -0.911900 -0.410413 0.000000 -0.935016 -0.354605 0.000000 -0.935016 -0.354605 0.000000 -0.954721 -0.297503 0.000000 -0.954721 -0.297503 0.000000 -0.970942 -0.239316 0.000000 -0.970942 -0.239316 0.000000 -0.983620 -0.180255 0.000000 -0.983620 -0.180255 0.000000 -0.992709 -0.120537 0.000000 -0.992709 -0.120537 0.000000 0.000000 0.000000 1.000000 0.000000 0.000000 1.000000 0.000000 0.000000 1.000000 0.000000 0.000000 1.000000 0.000000 0.000000 1.000000 0.000000 0.000000 1.000000 0.000000 0.000000 1.000000 0.000000 0.000000 1.000000 0.000000 0.000000 1.000000 0.000000 0.000000 1.000000 0.000000 0.000000 1.000000 0.000000 0.000000 1.000000 0.000000 0.000000 1.000000 0.000000 0.000000 1.000000 0.000000 0.000000 1.000000 0.000000 0.000000 1.000000 0.000000 0.000000 1.000000 0.000000 0.000000 1.000000 0.000000 0.000000 1.000000 0.000000 0.000000 1.000000 0.000000 0.000000 1.000000 0.000000 0.000000 1.000000 0.000000 0.000000 1.000000 0.000000 0.000000 1.000000 0.000000 0.000000 1.000000 0.000000 0.000000 1.000000 0.000000 0.000000 1.000000 0.000000 0.000000 1.000000 0.000000 0.000000 1.000000 0.000000 0.000000 1.000000 0.000000 0.000000 1.000000 0.000000 0.000000 1.000000 0.000000 0.000000 1.000000 0.000000 0.000000 1.000000 0.000000 0.000000 1.000000 0.000000 0.000000 1.000000 0.000000 0.000000 1.000000 0.000000 0.000000 1.000000 0.000000 0.000000 1.000000 0.000000 0.000000 1.000000 0.000000 0.000000 1.000000 0.000000 0.000000 1.000000 0.000000 0.000000 1.000000 0.000000 0.000000 1.000000 0.000000 0.000000 1.000000 0.000000 0.000000 1.000000 0.000000 0.000000 1.000000 0.000000 0.000000 1.000000 0.000000 0.000000 1.000000 0.000000 0.000000 1.000000 0.000000 0.000000 1.000000 0.000000 0.000000 1.000000 0.000000 0.000000 1.000000 0.000000 0.000000 1.000000 0.000000 0.000000 1.000000 0.000000 0.000000 1.000000 0.000000 0.000000 1.000000 0.000000 0.000000 1.000000 0.000000 0.000000 1.000000 0.000000 0.000000 1.000000 0.000000 0.000000 1.000000 0.000000 0.000000 1.000000 0.000000 0.000000 1.000000 0.000000 0.000000 1.000000 0.000000 0.000000 1.000000 0.000000 0.000000 1.000000 0.000000 0.000000 1.000000 0.000000 0.000000 1.000000 0.000000 0.000000 1.000000 0.000000 0.000000 1.000000 0.000000 0.000000 1.000000 0.000000 0.000000 1.000000 0.000000 0.000000 1.000000 0.000000 0.000000 1.000000 0.000000 0.000000 1.000000 0.000000 0.000000 1.000000 0.000000 0.000000 1.000000 0.000000 0.000000 1.000000 0.000000 0.000000 1.000000 0.000000 0.000000 1.000000 0.000000 0.000000 1.000000 0.000000 0.000000 1.000000 0.000000 0.000000 1.000000 0.000000 0.000000 1.000000 0.000000 0.000000 1.000000 0.000000 0.000000 1.000000 0.000000 0.000000 1.000000 0.000000 0.000000 1.000000 0.000000 0.000000 1.000000 0.000000 0.000000 1.000000 0.000000 0.000000 1.000000 0.000000 0.000000 1.000000 0.000000 0.000000 1.000000 0.000000 0.000000 1.000000 0.000000 0.000000 1.000000 0.000000 0.000000 1.000000 0.000000 0.000000 1.000000 0.000000 0.000000 1.000000 0.000000 0.000000 1.000000 0.000000 0.000000 1.000000 0.000000 0.000000 1.000000 0.000000 0.000000 1.000000 0.000000 0.000000 1.000000 0.000000 0.000000 1.000000 0.000000 0.000000 1.000000 0.000000 0.000000 1.000000 0.000000 0.000000 1.000000 0.000000 0.000000 1.000000 0.000000 0.000000 1.000000 0.000000 0.000000 1.000000 0.000000 0.000000 1.000000 0.000000 0.000000 1.000000 0.000000 0.000000 1.000000 0.000000 0.000000 1.000000 0.000000 0.000000 1.000000 0.000000 0.000000 1.000000 0.000000 0.000000 1.000000 0.000000 0.000000 1.000000 0.000000 0.000000 1.000000 0.000000 0.000000 1.000000 0.000000 0.000000 1.000000 0.000000 0.000000 1.000000 0.000000 0.000000 1.000000 0.000000 0.000000 1.000000 0.000000 0.000000 1.000000 0.000000 0.000000 1.000000 0.000000 0.000000 1.000000 0.000000 0.000000 1.000000 0.000000 0.000000 1.000000 0.000000 0.000000 1.000000 0.000000 0.000000 1.000000 0.000000 0.000000 1.000000 0.000000 0.000000 1.000000 0.000000 0.000000 1.000000 0.000000 0.000000 1.000000 0.000000 0.000000 1.000000 0.000000 0.000000 1.000000 0.000000 0.000000 1.000000 0.000000 0.000000 1.000000 0.000000 0.000000 1.000000 0.000000 0.000000 1.000000 0.000000 0.000000 1.000000 0.000000 0.000000 1.000000 0.000000 0.000000 1.000000 0.000000 0.000000 1.000000 0.000000 0.000000 1.000000 0.000000 0.000000 1.000000 0.000000 0.000000 1.000000 0.000000 0.000000 1.000000 0.000000 0.000000 1.000000 0.000000 0.000000 1.000000 0.000000 0.000000 1.000000 0.000000 0.000000 1.000000 0.000000 0.000000 1.000000 0.000000 0.000000 1.000000 0.000000 0.000000 1.000000 0.000000 0.000000 1.000000 0.000000 0.000000 1.000000 0.000000 0.000000 1.000000 0.000000 0.000000 1.000000 0.000000 0.000000 1.000000 0.000000 0.000000 1.000000 0.000000 0.000000 1.000000 0.000000 0.000000 1.000000 0.000000 0.000000 1.000000 0.000000 0.000000 1.000000 0.000000 0.000000 1.000000 0.000000 0.000000 1.000000 0.000000 0.000000 1.000000 0.000000 0.000000 1.000000 0.000000 0.000000 1.000000 0.000000 0.000000 1.000000 0.000000 0.000000 1.000000 0.000000 0.000000 1.000000 0.000000 0.000000 1.000000 0.000000 0.000000 1.000000 0.000000 0.000000 1.000000 0.000000 0.000000 1.000000 0.000000 0.000000 1.000000 0.000000 0.000000 1.000000 0.000000 0.000000 1.000000 0.000000 0.000000 1.000000 0.000000 0.000000 1.000000 0.000000 0.000000 1.000000 0.000000 0.000000 1.000000 0.000000 0.000000 1.000000 0.000000 0.000000 1.000000 0.000000 0.000000 1.000000 0.000000 0.000000 1.000000 0.000000 0.000000 1.000000 0.000000 0.000000 1.000000 0.000000 0.000000 1.000000 0.000000 0.000000 1.000000 0.000000 0.000000 1.000000 0.000000 0.000000 1.000000 0.000000 0.000000 1.000000 0.000000 0.000000 1.000000 0.000000 0.000000 1.000000 0.000000 0.000000 1.000000 0.000000 0.000000 1.000000 0.000000 0.000000 1.000000 0.000000 0.000000 1.000000 0.000000 0.000000 1.000000 0.000000 0.000000 1.000000 0.000000 0.000000 1.000000 0.000000 0.000000 1.000000 0.000000 0.000000 1.000000 -0.000000 -0.000000 -1.000000 -0.000000 -0.000000 -1.000000 -0.000000 -0.000000 -1.000000 -0.000000 -0.000000 -1.000000 -0.000000 -0.000000 -1.000000 -0.000000 -0.000000 -1.000000 -0.000000 -0.000000 -1.000000 -0.000000 -0.000000 -1.000000 -0.000000 -0.000000 -1.000000 -0.000000 -0.000000 -1.000000 -0.000000 -0.000000 -1.000000 -0.000000 -0.000000 -1.000000 -0.000000 -0.000000 -1.000000 -0.000000 -0.000000 -1.000000 -0.000000 -0.000000 -1.000000 -0.000000 -0.000000 -1.000000 -0.000000 -0.000000 -1.000000 -0.000000 -0.000000 -1.000000 -0.000000 -0.000000 -1.000000 -0.000000 -0.000000 -1.000000 -0.000000 -0.000000 -1.000000 -0.000000 -0.000000 -1.000000 -0.000000 -0.000000 -1.000000 -0.000000 -0.000000 -1.000000 -0.000000 -0.000000 -1.000000 -0.000000 -0.000000 -1.000000 -0.000000 -0.000000 -1.000000 -0.000000 -0.000000 -1.000000 -0.000000 -0.000000 -1.000000 -0.000000 -0.000000 -1.000000 -0.000000 -0.000000 -1.000000 -0.000000 -0.000000 -1.000000 -0.000000 -0.000000 -1.000000 -0.000000 -0.000000 -1.000000 -0.000000 -0.000000 -1.000000 -0.000000 -0.000000 -1.000000 -0.000000 -0.000000 -1.000000 -0.000000 -0.000000 -1.000000 -0.000000 -0.000000 -1.000000 -0.000000 -0.000000 -1.000000 -0.000000 -0.000000 -1.000000 -0.000000 -0.000000 -1.000000 -0.000000 -0.000000 -1.000000 -0.000000 -0.000000 -1.000000 -0.000000 -0.000000 -1.000000 -0.000000 -0.000000 -1.000000 -0.000000 -0.000000 -1.000000 -0.000000 -0.000000 -1.000000 -0.000000 -0.000000 -1.000000 -0.000000 -0.000000 -1.000000 -0.000000 -0.000000 -1.000000 -0.000000 -0.000000 -1.000000 -0.000000 -0.000000 -1.000000 -0.000000 -0.000000 -1.000000 -0.000000 -0.000000 -1.000000 -0.000000 -0.000000 -1.000000 -0.000000 -0.000000 -1.000000 -0.000000 -0.000000 -1.000000 -0.000000 -0.000000 -1.000000 -0.000000 -0.000000 -1.000000 -0.000000 -0.000000 -1.000000 -0.000000 -0.000000 -1.000000 -0.000000 -0.000000 -1.000000 -0.000000 -0.000000 -1.000000 -0.000000 -0.000000 -1.000000 -0.000000 -0.000000 -1.000000 -0.000000 -0.000000 -1.000000 -0.000000 -0.000000 -1.000000 -0.000000 -0.000000 -1.000000 -0.000000 -0.000000 -1.000000 -0.000000 -0.000000 -1.000000 -0.000000 -0.000000 -1.000000 -0.000000 -0.000000 -1.000000 -0.000000 -0.000000 -1.000000 -0.000000 -0.000000 -1.000000 -0.000000 -0.000000 -1.000000 -0.000000 -0.000000 -1.000000 -0.000000 -0.000000 -1.000000 -0.000000 -0.000000 -1.000000 -0.000000 -0.000000 -1.000000 -0.000000 -0.000000 -1.000000 -0.000000 -0.000000 -1.000000 -0.000000 -0.000000 -1.000000 -0.000000 -0.000000 -1.000000 -0.000000 -0.000000 -1.000000 -0.000000 -0.000000 -1.000000 -0.000000 -0.000000 -1.000000 -0.000000 -0.000000 -1.000000 -0.000000 -0.000000 -1.000000 -0.000000 -0.000000 -1.000000 -0.000000 -0.000000 -1.000000 -0.000000 -0.000000 -1.000000 -0.000000 -0.000000 -1.000000 -0.000000 -0.000000 -1.000000 -0.000000 -0.000000 -1.000000 -0.000000 -0.000000 -1.000000 -0.000000 -0.000000 -1.000000 -0.000000 -0.000000 -1.000000 -0.000000 -0.000000 -1.000000 -0.000000 -0.000000 -1.000000 -0.000000 -0.000000 -1.000000 -0.000000 -0.000000 -1.000000 -0.000000 -0.000000 -1.000000 -0.000000 -0.000000 -1.000000 0.161290 0.986907 0.000000 0.161290 0.986907 0.000000 -0.085440 0.996343 0.000000 -0.085440 0.996343 0.000000 -0.326961 0.945038 0.000000 -0.326961 0.945038 0.000000 -0.548549 0.836118 0.000000 -0.548549 0.836118 0.000000 -0.736695 0.676225 0.000000 -0.736695 0.676225 0.000000 -0.879929 0.475106 0.000000 -0.879929 0.475106 0.000000 -0.969518 0.245022 0.000000 -0.969518 0.245022 0.000000 -1.000000 -0.000000 -0.000000 -1.000000 -0.000000 -0.000000 -0.969518 -0.245022 -0.000000 -0.969518 -0.245022 -0.000000 -0.879929 -0.475106 -0.000000 -0.879929 -0.475106 -0.000000 -0.736695 -0.676225 -0.000000 -0.736695 -0.676225 -0.000000 -0.548549 -0.836118 -0.000000 -0.548549 -0.836118 -0.000000 -0.326961 -0.945038 -0.000000 -0.326961 -0.945038 -0.000000 -0.085440 -0.996343 -0.000000 -0.085440 -0.996343 -0.000000 0.161290 -0.986907 0.000000 0.161290 -0.986907 0.000000 -0.947971 -0.318357 -0.000000 -0.947971 -0.318357 -0.000000 -0.894927 -0.446213 -0.000000 -0.894927 -0.446213 -0.000000 -0.824735 -0.565519 -0.000000 -0.824735 -0.565519 -0.000000 -0.738741 -0.673990 -0.000000 -0.738741 -0.673990 -0.000000 -0.638592 -0.769546 -0.000000 -0.638592 -0.769546 -0.000000 -0.526207 -0.850357 -0.000000 -0.526207 -0.850357 -0.000000 -0.403739 -0.914874 -0.000000 -0.403739 -0.914874 -0.000000 -0.273535 -0.961862 -0.000000 -0.273535 -0.961862 -0.000000 -0.138091 -0.990420 -0.000000 -0.138091 -0.990420 -0.000000 0.000000 -1.000000 0.000000 0.000000 -1.000000 0.000000 0.138091 -0.990420 0.000000 0.138091 -0.990420 0.000000 0.273535 -0.961862 0.000000 0.273535 -0.961862 0.000000 0.403739 -0.914874 0.000000 0.403739 -0.914874 0.000000 0.526207 -0.850357 0.000000 0.526207 -0.850357 0.000000 0.638592 -0.769546 0.000000 0.638592 -0.769546 0.000000 0.738741 -0.673990 0.000000 0.738741 -0.673990 0.000000 0.824735 -0.565519 0.000000 0.824735 -0.565519 0.000000 0.894927 -0.446213 0.000000 0.894927 -0.446213 0.000000 0.947971 -0.318357 0.000000 0.947971 -0.318357 0.000000 -0.161290 -0.986907 -0.000000 -0.161290 -0.986907 -0.000000 0.085440 -0.996343 0.000000 0.085440 -0.996343 0.000000 0.326961 -0.945038 0.000000 0.326961 -0.945038 0.000000 0.548549 -0.836118 0.000000 0.548549 -0.836118 0.000000 0.736695 -0.676225 0.000000 0.736695 -0.676225 0.000000 0.879929 -0.475106 0.000000 0.879929 -0.475106 0.000000 0.969518 -0.245022 0.000000 0.969518 -0.245022 0.000000 1.000000 -0.000000 0.000000 1.000000 -0.000000 0.000000 0.969518 0.245022 0.000000 0.969518 0.245022 0.000000 0.879929 0.475106 0.000000 0.879929 0.475106 0.000000 0.736695 0.676225 0.000000 0.736695 0.676225 0.000000 0.548549 0.836118 0.000000 0.548549 0.836118 0.000000 0.326961 0.945038 0.000000 0.326961 0.945038 0.000000 0.085440 0.996343 0.000000 0.085440 0.996343 0.000000 -0.161290 0.986907 0.000000 -0.161290 0.986907 0.000000 0.947971 0.318357 0.000000 0.947971 0.318357 0.000000 0.894927 0.446213 0.000000 0.894927 0.446213 0.000000 0.824735 0.565519 0.000000 0.824735 0.565519 0.000000 0.738741 0.673990 0.000000 0.738741 0.673990 0.000000 0.638592 0.769546 0.000000 0.638592 0.769546 0.000000 0.526207 0.850357 0.000000 0.526207 0.850357 0.000000 0.403739 0.914874 0.000000 0.403739 0.914874 0.000000 0.273535 0.961862 0.000000 0.273535 0.961862 0.000000 0.138091 0.990420 0.000000 0.138091 0.990420 0.000000 0.000000 1.000000 0.000000 0.000000 1.000000 0.000000 -0.138091 0.990420 0.000000 -0.138091 0.990420 0.000000 -0.273535 0.961862 0.000000 -0.273535 0.961862 0.000000 -0.403739 0.914874 0.000000 -0.403739 0.914874 0.000000 -0.526207 0.850357 0.000000 -0.526207 0.850357 0.000000 -0.638592 0.769546 0.000000 -0.638592 0.769546 0.000000 -0.738741 0.673990 0.000000 -0.738741 0.673990 0.000000 -0.824735 0.565519 0.000000 -0.824735 0.565519 0.000000 -0.894927 0.446213 0.000000 -0.894927 0.446213 0.000000 -0.947971 0.318357 0.000000 -0.947971 0.318357 0.000000 0.000000 0.000000 1.000000 0.000000 0.000000 1.000000 0.000000 0.000000 1.000000 0.000000 0.000000 1.000000 0.000000 0.000000 1.000000 0.000000 0.000000 1.000000 0.000000 0.000000 1.000000 0.000000 0.000000 1.000000 0.000000 0.000000 1.000000 0.000000 0.000000 1.000000 0.000000 0.000000 1.000000 0.000000 0.000000 1.000000 0.000000 0.000000 1.000000 0.000000 0.000000 1.000000 0.000000 0.000000 1.000000 0.000000 0.000000 1.000000 0.000000 0.000000 1.000000 0.000000 0.000000 1.000000 0.000000 0.000000 1.000000 0.000000 0.000000 1.000000 0.000000 0.000000 1.000000 0.000000 0.000000 1.000000 0.000000 0.000000 1.000000 0.000000 0.000000 1.000000 0.000000 0.000000 1.000000 0.000000 0.000000 1.000000 0.000000 0.000000 1.000000 0.000000 0.000000 1.000000 0.000000 0.000000 1.000000 0.000000 0.000000 1.000000 0.000000 0.000000 1.000000 0.000000 0.000000 1.000000 0.000000 0.000000 1.000000 0.000000 0.000000 1.000000 0.000000 0.000000 1.000000 0.000000 0.000000 1.000000 0.000000 0.000000 1.000000 0.000000 0.000000 1.000000 0.000000 0.000000 1.000000 0.000000 0.000000 1.000000 0.000000 0.000000 1.000000 0.000000 0.000000 1.000000 0.000000 0.000000 1.000000 0.000000 0.000000 1.000000 0.000000 0.000000 1.000000 0.000000 0.000000 1.000000 0.000000 0.000000 1.000000 0.000000 0.000000 1.000000 0.000000 0.000000 1.000000 0.000000 0.000000 1.000000 0.000000 0.000000 1.000000 0.000000 0.000000 1.000000 0.000000 0.000000 1.000000 0.000000 0.000000 1.000000 0.000000 0.000000 1.000000 0.000000 0.000000 1.000000 0.000000 0.000000 1.000000 0.000000 0.000000 1.000000 0.000000 0.000000 1.000000 0.000000 0.000000 1.000000 0.000000 0.000000 1.000000 0.000000 0.000000 1.000000 0.000000 0.000000 1.000000 0.000000 0.000000 1.000000 -0.998140 -0.060964 0.000000 -0.998140 -0.060964 0.000000 -1.000000 -0.000000 0.000000 -1.000000 -0.000000 0.000000 -0.998140 0.060964 -0.000000 -0.998140 0.060964 -0.000000 -0.992567 0.121701 -0.000000 -0.992567 0.121701 -0.000000 -0.983301 0.181986 -0.000000 -0.983301 0.181986 -0.000000 -0.970378 0.241593 -0.000000 -0.970378 0.241593 -0.000000 -0.953844 0.300302 -0.000000 -0.953844 0.300302 -0.000000 -0.933762 0.357893 -0.000000 -0.933762 0.357893 -0.000000 -0.910207 0.414153 -0.000000 -0.910207 0.414153 -0.000000 -0.883266 0.468873 -0.000000 -0.883266 0.468873 -0.000000 -0.853038 0.521848 -0.000000 -0.853038 0.521848 -0.000000 -0.819638 0.572882 -0.000000 -0.819638 0.572882 -0.000000 -0.783188 0.621785 -0.000000 -0.783188 0.621785 -0.000000 -0.743825 0.668375 -0.000000 -0.743825 0.668375 -0.000000 -0.701694 0.712478 -0.000000 -0.701694 0.712478 -0.000000 -0.656954 0.753931 -0.000000 -0.656954 0.753931 -0.000000 -0.609769 0.792579 -0.000000 -0.609769 0.792579 -0.000000 -0.560316 0.828279 -0.000000 -0.560316 0.828279 -0.000000 -0.508779 0.860897 -0.000000 -0.508779 0.860897 -0.000000 -0.455349 0.890313 -0.000000 -0.455349 0.890313 -0.000000 -0.400225 0.916417 -0.000000 -0.400225 0.916417 -0.000000 -0.343612 0.939112 -0.000000 -0.343612 0.939112 -0.000000 -0.285721 0.958313 -0.000000 -0.285721 0.958313 -0.000000 -0.226767 0.973949 -0.000000 -0.226767 0.973949 -0.000000 -0.166969 0.985962 -0.000000 -0.166969 0.985962 -0.000000 -0.106550 0.994307 -0.000000 -0.106550 0.994307 -0.000000 -0.045735 0.998954 -0.000000 -0.045735 0.998954 -0.000000 0.015250 0.999884 -0.000000 0.015250 0.999884 -0.000000 0.076178 0.997094 -0.000000 0.076178 0.997094 -0.000000 0.136824 0.990595 -0.000000 0.136824 0.990595 -0.000000 0.196960 0.980412 -0.000000 0.196960 0.980412 -0.000000 0.256363 0.966581 -0.000000 0.256363 0.966581 -0.000000 0.314813 0.949154 -0.000000 0.314813 0.949154 -0.000000 0.372091 0.928196 -0.000000 0.372091 0.928196 -0.000000 0.427986 0.903785 -0.000000 0.427986 0.903785 -0.000000 0.482288 0.876013 -0.000000 0.482288 0.876013 -0.000000 0.534796 0.844981 -0.000000 0.534796 0.844981 -0.000000 0.585315 0.810806 -0.000000 0.585315 0.810806 -0.000000 0.633656 0.773615 -0.000000 0.633656 0.773615 -0.000000 0.679640 0.733546 -0.000000 0.679640 0.733546 -0.000000 0.723096 0.690748 -0.000000 0.723096 0.690748 -0.000000 0.763862 0.645380 -0.000000 0.763862 0.645380 -0.000000 0.801786 0.597612 -0.000000 0.801786 0.597612 -0.000000 0.836727 0.547620 -0.000000 0.836727 0.547620 -0.000000 0.868556 0.495591 -0.000000 0.868556 0.495591 -0.000000 0.897154 0.441719 -0.000000 0.897154 0.441719 -0.000000 0.922414 0.386203 -0.000000 0.922414 0.386203 -0.000000 0.944243 0.329251 -0.000000 0.944243 0.329251 -0.000000 0.962559 0.271073 -0.000000 0.962559 0.271073 -0.000000 0.977294 0.211888 -0.000000 0.977294 0.211888 -0.000000 0.988394 0.151914 -0.000000 0.988394 0.151914 -0.000000 0.995817 0.091375 -0.000000 0.995817 0.091375 -0.000000 0.999535 0.030496 -0.000000 0.999535 0.030496 -0.000000 0.999535 -0.030496 -0.000000 0.999535 -0.030496 -0.000000 0.995817 -0.091375 -0.000000 0.995817 -0.091375 -0.000000 0.988394 -0.151914 -0.000000 0.988394 -0.151914 -0.000000 0.977294 -0.211888 -0.000000 0.977294 -0.211888 -0.000000 0.962559 -0.271073 -0.000000 0.962559 -0.271073 -0.000000 0.944243 -0.329251 -0.000000 0.944243 -0.329251 -0.000000 0.922414 -0.386203 -0.000000 0.922414 -0.386203 -0.000000 0.897154 -0.441719 -0.000000 0.897154 -0.441719 -0.000000 0.868556 -0.495591 -0.000000 0.868556 -0.495591 -0.000000 0.836727 -0.547620 -0.000000 0.836727 -0.547620 -0.000000 0.801786 -0.597612 -0.000000 0.801786 -0.597612 -0.000000 0.763862 -0.645380 -0.000000 0.763862 -0.645380 -0.000000 0.723096 -0.690748 -0.000000 0.723096 -0.690748 -0.000000 0.679640 -0.733546 -0.000000 0.679640 -0.733546 -0.000000 0.633656 -0.773615 -0.000000 0.633656 -0.773615 -0.000000 0.585315 -0.810806 -0.000000 0.585315 -0.810806 -0.000000 0.534796 -0.844981 -0.000000 0.534796 -0.844981 -0.000000 0.482288 -0.876013 -0.000000 0.482288 -0.876013 -0.000000 0.427986 -0.903785 -0.000000 0.427986 -0.903785 -0.000000 0.372091 -0.928196 -0.000000 0.372091 -0.928196 -0.000000 0.314813 -0.949154 -0.000000 0.314813 -0.949154 -0.000000 0.256363 -0.966581 -0.000000 0.256363 -0.966581 -0.000000 0.196960 -0.980412 -0.000000 0.196960 -0.980412 -0.000000 0.136824 -0.990595 -0.000000 0.136824 -0.990595 -0.000000 0.076178 -0.997094 -0.000000 0.076178 -0.997094 -0.000000 0.015250 -0.999884 -0.000000 0.015250 -0.999884 -0.000000 -0.045735 -0.998954 0.000000 -0.045735 -0.998954 0.000000 -0.106550 -0.994307 0.000000 -0.106550 -0.994307 0.000000 -0.166969 -0.985962 0.000000 -0.166969 -0.985962 0.000000 -0.226767 -0.973949 0.000000 -0.226767 -0.973949 0.000000 -0.285721 -0.958313 0.000000 -0.285721 -0.958313 0.000000 -0.343612 -0.939112 0.000000 -0.343612 -0.939112 0.000000 -0.400225 -0.916417 0.000000 -0.400225 -0.916417 0.000000 -0.455349 -0.890313 0.000000 -0.455349 -0.890313 0.000000 -0.508779 -0.860897 0.000000 -0.508779 -0.860897 0.000000 -0.560316 -0.828279 0.000000 -0.560316 -0.828279 0.000000 -0.609769 -0.792579 0.000000 -0.609769 -0.792579 0.000000 -0.656954 -0.753931 0.000000 -0.656954 -0.753931 0.000000 -0.701694 -0.712478 0.000000 -0.701694 -0.712478 0.000000 -0.743825 -0.668375 0.000000 -0.743825 -0.668375 0.000000 -0.783188 -0.621785 0.000000 -0.783188 -0.621785 0.000000 -0.819638 -0.572882 0.000000 -0.819638 -0.572882 0.000000 -0.853038 -0.521848 0.000000 -0.853038 -0.521848 0.000000 -0.883266 -0.468873 0.000000 -0.883266 -0.468873 0.000000 -0.910207 -0.414153 0.000000 -0.910207 -0.414153 0.000000 -0.933762 -0.357893 0.000000 -0.933762 -0.357893 0.000000 -0.953844 -0.300302 0.000000 -0.953844 -0.300302 0.000000 -0.970378 -0.241593 0.000000 -0.970378 -0.241593 0.000000 -0.983301 -0.181986 0.000000 -0.983301 -0.181986 0.000000 -0.992567 -0.121701 0.000000 -0.992567 -0.121701 0.000000 0.000000 0.000000 1.000000 0.000000 0.000000 1.000000 0.000000 0.000000 1.000000 0.000000 0.000000 1.000000 0.000000 0.000000 1.000000 0.000000 0.000000 1.000000 0.000000 0.000000 1.000000 0.000000 0.000000 1.000000 0.000000 0.000000 1.000000 0.000000 0.000000 1.000000 0.000000 0.000000 1.000000 0.000000 0.000000 1.000000 0.000000 0.000000 1.000000 0.000000 0.000000 1.000000 0.000000 0.000000 1.000000 0.000000 0.000000 1.000000 0.000000 0.000000 1.000000 0.000000 0.000000 1.000000 0.000000 0.000000 1.000000 0.000000 0.000000 1.000000 0.000000 0.000000 1.000000 0.000000 0.000000 1.000000 0.000000 0.000000 1.000000 0.000000 0.000000 1.000000 0.000000 0.000000 1.000000 0.000000 0.000000 1.000000 0.000000 0.000000 1.000000 0.000000 0.000000 1.000000 0.000000 0.000000 1.000000 0.000000 0.000000 1.000000 0.000000 0.000000 1.000000 0.000000 0.000000 1.000000 0.000000 0.000000 1.000000 0.000000 0.000000 1.000000 0.000000 0.000000 1.000000 0.000000 0.000000 1.000000 0.000000 0.000000 1.000000 0.000000 0.000000 1.000000 0.000000 0.000000 1.000000 0.000000 0.000000 1.000000 0.000000 0.000000 1.000000 0.000000 0.000000 1.000000 0.000000 0.000000 1.000000 0.000000 0.000000 1.000000 0.000000 0.000000 1.000000 0.000000 0.000000 1.000000 0.000000 0.000000 1.000000 0.000000 0.000000 1.000000 0.000000 0.000000 1.000000 0.000000 0.000000 1.000000 0.000000 0.000000 1.000000 0.000000 0.000000 1.000000 0.000000 0.000000 1.000000 0.000000 0.000000 1.000000 0.000000 0.000000 1.000000 0.000000 0.000000 1.000000 0.000000 0.000000 1.000000 0.000000 0.000000 1.000000 0.000000 0.000000 1.000000 0.000000 0.000000 1.000000 0.000000 0.000000 1.000000 0.000000 0.000000 1.000000 0.000000 0.000000 1.000000 0.000000 0.000000 1.000000 0.000000 0.000000 1.000000 0.000000 0.000000 1.000000 0.000000 0.000000 1.000000 0.000000 0.000000 1.000000 0.000000 0.000000 1.000000 0.000000 0.000000 1.000000 0.000000 0.000000 1.000000 0.000000 0.000000 1.000000 0.000000 0.000000 1.000000 0.000000 0.000000 1.000000 0.000000 0.000000 1.000000 0.000000 0.000000 1.000000 0.000000 0.000000 1.000000 0.000000 0.000000 1.000000 0.000000 0.000000 1.000000 0.000000 0.000000 1.000000 0.000000 0.000000 1.000000 0.000000 0.000000 1.000000 0.000000 0.000000 1.000000 0.000000 0.000000 1.000000 0.000000 0.000000 1.000000 0.000000 0.000000 1.000000 0.000000 0.000000 1.000000 0.000000 0.000000 1.000000 0.000000 0.000000 1.000000 0.000000 0.000000 1.000000 0.000000 0.000000 1.000000 0.000000 0.000000 1.000000 0.000000 0.000000 1.000000 0.000000 0.000000 1.000000 0.000000 0.000000 1.000000 0.000000 0.000000 1.000000 0.000000 0.000000 1.000000 0.000000 0.000000 1.000000 0.000000 0.000000 1.000000 0.000000 0.000000 1.000000 0.000000 0.000000 1.000000 0.000000 0.000000 1.000000 0.000000 0.000000 1.000000 0.000000 0.000000 1.000000 0.000000 0.000000 1.000000 0.000000 0.000000 1.000000 0.000000 0.000000 1.000000 0.000000 0.000000 1.000000 0.000000 0.000000 1.000000 0.000000 0.000000 1.000000 0.000000 0.000000 1.000000 0.000000 0.000000 1.000000 0.000000 0.000000 1.000000 0.000000 0.000000 1.000000 0.000000 0.000000 1.000000 0.000000 0.000000 1.000000 0.000000 0.000000 1.000000 0.000000 0.000000 1.000000 0.000000 0.000000 1.000000 0.000000 0.000000 1.000000 0.000000 0.000000 1.000000 0.000000 0.000000 1.000000 0.000000 0.000000 1.000000 0.000000 0.000000 1.000000 0.000000 0.000000 1.000000 0.000000 0.000000 1.000000 0.000000 0.000000 1.000000 0.000000 0.000000 1.000000 0.000000 0.000000 1.000000 0.000000 0.000000 1.000000 0.000000 0.000000 1.000000 0.000000 0.000000 1.000000 0.000000 0.000000 1.000000 0.000000 0.000000 1.000000 0.000000 0.000000 1.000000 0.000000 0.000000 1.000000 0.000000 0.000000 1.000000 0.000000 0.000000 1.000000 0.000000 0.000000 1.000000 0.000000 0.000000 1.000000 0.000000 0.000000 1.000000 0.000000 0.000000 1.000000 0.000000 0.000000 1.000000 0.000000 0.000000 1.000000 0.000000 0.000000 1.000000 0.000000 0.000000 1.000000 0.000000 0.000000 1.000000 0.000000 0.000000 1.000000 0.000000 0.000000 1.000000 0.000000 0.000000 1.000000 0.000000 0.000000 1.000000 0.000000 0.000000 1.000000 0.000000 0.000000 1.000000 0.000000 0.000000 1.000000 0.000000 0.000000 1.000000 0.000000 0.000000 1.000000 0.000000 0.000000 1.000000 0.000000 0.000000 1.000000 0.000000 0.000000 1.000000 0.000000 0.000000 1.000000 0.000000 0.000000 1.000000 0.000000 0.000000 1.000000 0.000000 0.000000 1.000000 0.000000 0.000000 1.000000 0.000000 0.000000 1.000000 0.000000 0.000000 1.000000 0.000000 0.000000 1.000000</float_array>
          <technique_common>
            <accessor source="#lidar-mesh-normals-array" count="1092" stride="3">
              <param name="X" type="float"/>
              <param name="Y" type="float"/>
              <param name="Z" type="float"/>
            </accessor>
          </technique_common>
        </source>
        <vertices id="lidar-mesh-vertices">
          <input semantic="POSITION" source="#lidar-mesh-positions"/>
        </vertices>
        <triangles material="Opaque_254_101_27_" count="1080">
          <input semantic="VERTEX" source="#lidar-mesh-vertices" offset="0"/>
          <input semantic="NORMAL" source="#lidar-mesh-normals" offset="1"/>
          <p>1 0 207 1 0 2 0 2 207 1 104 3 0 2 104 3 103 4 103 4 104 3 105 5 103 4 105 5 102 6 102 6 105 5 106 7 102 6 106 7 101 8 101 8 106 7 107 9 101 8 107 9 100 10 100 10 107 9 108 11 100 10 108 11 99 12 99 12 108 11 109 13 99 12 109 13 98 14 98 14 109 13 110 15 98 14 110 15 97 16 97 16 110 15 111 17 97 16 111 17 96 18 96 18 111 17 112 19 96 18 112 19 95 20 95 20 112 19 113 21 95 20 113 21 94 22 94 22 113 21 114 23 94 22 114 23 93 24 93 24 114 23 115 25 93 24 115 25 92 26 92 26 115 25 116 27 92 26 116 27 91 28 91 28 116 27 117 29 91 28 117 29 90 30 90 30 117 29 118 31 90 30 118 31 89 32 89 32 118 31 119 33 89 32 119 33 88 34 88 34 119 33 120 35 88 34 120 35 87 36 87 36 120 35 121 37 87 36 121 37 86 38 86 38 121 37 122 39 86 38 122 39 85 40 85 40 122 39 123 41 85 40 123 41 84 42 84 42 123 41 124 43 84 42 124 43 83 44 83 44 124 43 125 45 83 44 125 45 82 46 82 46 125 45 126 47 82 46 126 47 81 48 81 48 126 47 127 49 81 48 127 49 80 50 80 50 127 49 128 51 80 50 128 51 79 52 79 52 128 51 129 53 79 52 129 53 78 54 78 54 129 53 130 55 78 54 130 55 77 56 77 56 130 55 131 57 77 56 131 57 76 58 76 58 131 57 132 59 76 58 132 59 75 60 75 60 132 59 133 61 75 60 133 61 74 62 74 62 133 61 134 63 74 62 134 63 73 64 73 64 134 63 135 65 73 64 135 65 72 66 72 66 135 65 136 67 72 66 136 67 71 68 71 68 136 67 137 69 71 68 137 69 70 70 70 70 137 69 138 71 70 70 138 71 69 72 69 72 138 71 139 73 69 72 139 73 68 74 68 74 139 73 140 75 68 74 140 75 67 76 67 76 140 75 141 77 67 76 141 77 66 78 66 78 141 77 142 79 66 78 142 79 65 80 65 80 142 79 143 81 65 80 143 81 64 82 64 82 143 81 144 83 64 82 144 83 63 84 63 84 144 83 145 85 63 84 145 85 62 86 62 86 145 85 146 87 62 86 146 87 61 88 61 88 146 87 147 89 61 88 147 89 60 90 60 90 147 89 148 91 60 90 148 91 59 92 59 92 148 91 149 93 59 92 149 93 58 94 58 94 149 93 150 95 58 94 150 95 57 96 57 96 150 95 151 97 57 96 151 97 56 98 56 98 151 97 152 99 56 98 152 99 55 100 55 100 152 99 153 101 55 100 153 101 54 102 54 102 153 101 154 103 54 102 154 103 53 104 53 104 154 103 155 105 53 104 155 105 52 106 52 106 155 105 156 107 52 106 156 107 51 108 51 108 156 107 157 109 51 108 157 109 50 110 50 110 157 109 158 111 50 110 158 111 49 112 49 112 158 111 159 113 49 112 159 113 48 114 48 114 159 113 160 115 48 114 160 115 47 116 47 116 160 115 161 117 47 116 161 117 46 118 46 118 161 117 162 119 46 118 162 119 45 120 45 120 162 119 163 121 45 120 163 121 44 122 44 122 163 121 164 123 44 122 164 123 43 124 43 124 164 123 165 125 43 124 165 125 42 126 42 126 165 125 166 127 42 126 166 127 41 128 41 128 166 127 167 129 41 128 167 129 40 130 40 130 167 129 168 131 40 130 168 131 39 132 39 132 168 131 169 133 39 132 169 133 38 134 38 134 169 133 170 135 38 134 170 135 37 136 37 136 170 135 171 137 37 136 171 137 36 138 36 138 171 137 172 139 36 138 172 139 35 140 35 140 172 139 173 141 35 140 173 141 34 142 34 142 173 141 174 143 34 142 174 143 33 144 33 144 174 143 175 145 33 144 175 145 32 146 32 146 175 145 176 147 32 146 176 147 31 148 31 148 176 147 177 149 31 148 177 149 30 150 30 150 177 149 178 151 30 150 178 151 29 152 29 152 178 151 179 153 29 152 179 153 28 154 28 154 179 153 180 155 28 154 180 155 27 156 27 156 180 155 181 157 27 156 181 157 26 158 26 158 181 157 182 159 26 158 182 159 25 160 25 160 182 159 183 161 25 160 183 161 24 162 24 162 183 161 184 163 24 162 184 163 23 164 23 164 184 163 185 165 23 164 185 165 22 166 22 166 185 165 186 167 22 166 186 167 21 168 21 168 186 167 187 169 21 168 187 169 20 170 20 170 187 169 188 171 20 170 188 171 19 172 19 172 188 171 189 173 19 172 189 173 18 174 18 174 189 173 190 175 18 174 190 175 17 176 17 176 190 175 191 177 17 176 191 177 16 178 16 178 191 177 192 179 16 178 192 179 15 180 15 180 192 179 193 181 15 180 193 181 14 182 14 182 193 181 194 183 14 182 194 183 13 184 13 184 194 183 195 185 13 184 195 185 12 186 12 186 195 185 196 187 12 186 196 187 11 188 11 188 196 187 197 189 11 188 197 189 10 190 10 190 197 189 198 191 10 190 198 191 9 192 9 192 198 191 199 193 9 192 199 193 8 194 8 194 199 193 200 195 8 194 200 195 7 196 7 196 200 195 201 197 7 196 201 197 6 198 6 198 201 197 202 199 6 198 202 199 5 200 5 200 202 199 203 201 5 200 203 201 4 202 4 202 203 201 204 203 4 202 204 203 3 204 3 204 204 203 205 205 3 204 205 205 2 206 2 206 205 205 206 207 2 206 206 207 1 0 1 0 206 207 207 1 105 208 104 209 208 210 208 210 104 209 207 211 208 210 207 211 310 212 310 212 207 211 206 213 310 212 206 213 309 214 309 214 206 213 205 215 309 214 205 215 308 216 308 216 205 215 204 217 308 216 204 217 307 218 307 218 204 217 203 219 307 218 203 219 306 220 306 220 203 219 202 221 306 220 202 221 305 222 305 222 202 221 201 223 305 222 201 223 304 224 304 224 201 223 200 225 304 224 200 225 303 226 303 226 200 225 199 227 303 226 199 227 302 228 302 228 199 227 198 229 302 228 198 229 301 230 301 230 198 229 197 231 301 230 197 231 300 232 300 232 197 231 196 233 300 232 196 233 299 234 299 234 196 233 195 235 299 234 195 235 298 236 298 236 195 235 194 237 298 236 194 237 297 238 297 238 194 237 193 239 297 238 193 239 296 240 296 240 193 239 192 241 296 240 192 241 295 242 295 242 192 241 191 243 295 242 191 243 294 244 294 244 191 243 190 245 294 244 190 245 293 246 293 246 190 245 189 247 293 246 189 247 292 248 292 248 189 247 188 249 292 248 188 249 291 250 291 250 188 249 187 251 291 250 187 251 290 252 290 252 187 251 186 253 290 252 186 253 289 254 289 254 186 253 185 255 289 254 185 255 288 256 288 256 185 255 184 257 288 256 184 257 287 258 287 258 184 257 183 259 287 258 183 259 286 260 286 260 183 259 182 261 286 260 182 261 285 262 285 262 182 261 181 263 285 262 181 263 284 264 284 264 181 263 180 265 284 264 180 265 283 266 283 266 180 265 179 267 283 266 179 267 282 268 282 268 179 267 178 269 282 268 178 269 281 270 281 270 178 269 177 271 281 270 177 271 280 272 280 272 177 271 176 273 280 272 176 273 279 274 279 274 176 273 175 275 279 274 175 275 278 276 278 276 175 275 174 277 278 276 174 277 277 278 277 278 174 277 173 279 277 278 173 279 276 280 276 280 173 279 172 281 276 280 172 281 275 282 275 282 172 281 171 283 275 282 171 283 274 284 274 284 171 283 170 285 274 284 170 285 273 286 273 286 170 285 169 287 273 286 169 287 272 288 272 288 169 287 168 289 272 288 168 289 271 290 271 290 168 289 167 291 271 290 167 291 270 292 270 292 167 291 166 293 270 292 166 293 269 294 269 294 166 293 165 295 269 294 165 295 268 296 268 296 165 295 164 297 268 296 164 297 267 298 267 298 164 297 163 299 267 298 163 299 266 300 266 300 163 299 162 301 266 300 162 301 265 302 265 302 162 301 161 303 265 302 161 303 264 304 264 304 161 303 160 305 264 304 160 305 263 306 263 306 160 305 159 307 263 306 159 307 262 308 262 308 159 307 158 309 262 308 158 309 261 310 261 310 158 309 157 311 261 310 157 311 260 312 260 312 157 311 156 313 260 312 156 313 259 314 259 314 156 313 155 315 259 314 155 315 258 316 258 316 155 315 154 317 258 316 154 317 257 318 257 318 154 317 153 319 257 318 153 319 256 320 256 320 153 319 152 321 256 320 152 321 255 322 255 322 152 321 151 323 255 322 151 323 254 324 254 324 151 323 150 325 254 324 150 325 253 326 253 326 150 325 149 327 253 326 149 327 252 328 252 328 149 327 148 329 252 328 148 329 251 330 251 330 148 329 147 331 251 330 147 331 250 332 250 332 147 331 146 333 250 332 146 333 249 334 249 334 146 333 145 335 249 334 145 335 248 336 248 336 145 335 144 337 248 336 144 337 247 338 247 338 144 337 143 339 247 338 143 339 246 340 246 340 143 339 142 341 246 340 142 341 245 342 245 342 142 341 141 343 245 342 141 343 244 344 244 344 141 343 140 345 244 344 140 345 243 346 243 346 140 345 139 347 243 346 139 347 242 348 242 348 139 347 138 349 242 348 138 349 241 350 241 350 138 349 137 351 241 350 137 351 240 352 240 352 137 351 136 353 240 352 136 353 239 354 239 354 136 353 135 355 239 354 135 355 238 356 238 356 135 355 134 357 238 356 134 357 237 358 237 358 134 357 133 359 237 358 133 359 236 360 236 360 133 359 132 361 236 360 132 361 235 362 235 362 132 361 131 363 235 362 131 363 234 364 234 364 131 363 130 365 234 364 130 365 233 366 233 366 130 365 129 367 233 366 129 367 232 368 232 368 129 367 128 369 232 368 128 369 231 370 231 370 128 369 127 371 231 370 127 371 230 372 230 372 127 371 126 373 230 372 126 373 229 374 229 374 126 373 125 375 229 374 125 375 228 376 228 376 125 375 124 377 228 376 124 377 227 378 227 378 124 377 123 379 227 378 123 379 226 380 226 380 123 379 122 381 226 380 122 381 225 382 225 382 122 381 121 383 225 382 121 383 224 384 224 384 121 383 120 385 224 384 120 385 223 386 223 386 120 385 119 387 223 386 119 387 222 388 222 388 119 387 118 389 222 388 118 389 221 390 221 390 118 389 117 391 221 390 117 391 220 392 220 392 117 391 116 393 220 392 116 393 219 394 219 394 116 393 115 395 219 394 115 395 218 396 218 396 115 395 114 397 218 396 114 397 217 398 217 398 114 397 113 399 217 398 113 399 216 400 216 400 113 399 112 401 216 400 112 401 215 402 215 402 112 401 111 403 215 402 111 403 214 404 214 404 111 403 110 405 214 404 110 405 213 406 213 406 110 405 109 407 213 406 109 407 212 408 212 408 109 407 108 409 212 408 108 409 211 410 211 410 108 409 107 411 211 410 107 411 210 412 210 412 107 411 106 413 210 412 106 413 209 414 209 414 106 413 105 208 209 414 105 208 208 210 103 415 53 416 0 417 0 417 53 416 52 418 0 417 52 418 1 419 1 419 52 418 51 420 1 419 51 420 2 421 2 421 51 420 50 422 2 421 50 422 3 423 3 423 50 422 49 424 3 423 49 424 4 425 4 425 49 424 48 426 4 425 48 426 5 427 5 427 48 426 47 428 5 427 47 428 6 429 6 429 47 428 46 430 6 429 46 430 7 431 7 431 46 430 45 432 7 431 45 432 8 433 8 433 45 432 44 434 8 433 44 434 9 435 9 435 44 434 43 436 9 435 43 436 10 437 10 437 43 436 42 438 10 437 42 438 11 439 11 439 42 438 41 440 11 439 41 440 12 441 12 441 41 440 40 442 12 441 40 442 13 443 13 443 40 442 39 444 13 443 39 444 14 445 14 445 39 444 38 446 14 445 38 446 15 447 15 447 38 446 37 448 15 447 37 448 16 449 16 449 37 448 36 450 16 449 36 450 17 451 17 451 36 450 35 452 17 451 35 452 18 453 18 453 35 452 34 454 18 453 34 454 19 455 19 455 34 454 33 456 19 455 33 456 20 457 20 457 33 456 32 458 20 457 32 458 21 459 21 459 32 458 31 460 21 459 31 460 22 461 22 461 31 460 30 462 22 461 30 462 23 463 23 463 30 462 29 464 23 463 29 464 24 465 24 465 29 464 28 466 24 465 28 466 25 467 25 467 28 466 27 468 25 467 27 468 26 469 53 416 103 415 54 470 54 470 103 415 102 471 54 470 102 471 55 472 55 472 102 471 101 473 55 472 101 473 56 474 56 474 101 473 100 475 56 474 100 475 57 476 57 476 100 475 99 477 57 476 99 477 58 478 58 478 99 477 98 479 58 478 98 479 59 480 59 480 98 479 97 481 59 480 97 481 60 482 60 482 97 481 96 483 60 482 96 483 61 484 61 484 96 483 95 485 61 484 95 485 62 486 62 486 95 485 94 487 62 486 94 487 63 488 63 488 94 487 93 489 63 488 93 489 64 490 64 490 93 489 92 491 64 490 92 491 65 492 65 492 92 491 91 493 65 492 91 493 66 494 66 494 91 493 90 495 66 494 90 495 67 496 67 496 90 495 89 497 67 496 89 497 68 498 68 498 89 497 88 499 68 498 88 499 69 500 69 500 88 499 87 501 69 500 87 501 70 502 70 502 87 501 86 503 70 502 86 503 71 504 71 504 86 503 85 505 71 504 85 505 72 506 72 506 85 505 84 507 72 506 84 507 73 508 73 508 84 507 83 509 73 508 83 509 74 510 74 510 83 509 82 511 74 510 82 511 75 512 75 512 82 511 81 513 75 512 81 513 76 514 76 514 81 513 80 515 76 514 80 515 77 516 77 516 80 515 79 517 77 516 79 517 78 518 340 519 311 520 339 521 339 521 311 520 312 522 339 521 312 522 338 523 338 523 312 522 313 524 338 523 313 524 337 525 337 525 313 524 314 526 337 525 314 526 336 527 336 527 314 526 315 528 336 527 315 528 335 529 335 529 315 528 316 530 335 529 316 530 334 531 334 531 316 530 317 532 334 531 317 532 333 533 333 533 317 532 318 534 333 533 318 534 332 535 332 535 318 534 319 536 332 535 319 536 331 537 331 537 319 536 320 538 331 537 320 538 330 539 330 539 320 538 321 540 330 539 321 540 329 541 329 541 321 540 322 542 329 541 322 542 328 543 328 543 322 542 323 544 328 543 323 544 327 545 327 545 323 544 324 546 327 545 324 546 326 547 326 547 324 546 325 548 326 549 325 550 376 551 376 551 325 550 341 552 376 551 341 552 375 553 375 553 341 552 342 554 375 553 342 554 374 555 374 555 342 554 343 556 374 555 343 556 373 557 373 557 343 556 344 558 373 557 344 558 372 559 372 559 344 558 345 560 372 559 345 560 371 561 371 561 345 560 346 562 371 561 346 562 370 563 370 563 346 562 347 564 370 563 347 564 369 565 369 565 347 564 348 566 369 565 348 566 368 567 368 567 348 566 349 568 368 567 349 568 367 569 367 569 349 568 350 570 367 569 350 570 366 571 366 571 350 570 351 572 366 571 351 572 365 573 365 573 351 572 352 574 365 573 352 574 364 575 364 575 352 574 353 576 364 575 353 576 363 577 363 577 353 576 354 578 363 577 354 578 362 579 362 579 354 578 355 580 362 579 355 580 361 581 361 581 355 580 356 582 361 581 356 582 360 583 360 583 356 582 357 584 360 583 357 584 359 585 359 585 357 584 358 586 359 587 358 588 404 589 404 589 358 588 377 590 404 589 377 590 403 591 403 591 377 590 378 592 403 591 378 592 402 593 402 593 378 592 379 594 402 593 379 594 401 595 401 595 379 594 380 596 401 595 380 596 400 597 400 597 380 596 381 598 400 597 381 598 399 599 399 599 381 598 382 600 399 599 382 600 398 601 398 601 382 600 383 602 398 601 383 602 397 603 397 603 383 602 384 604 397 603 384 604 396 605 396 605 384 604 385 606 396 605 385 606 395 607 395 607 385 606 386 608 395 607 386 608 394 609 394 609 386 608 387 610 394 609 387 610 393 611 393 611 387 610 388 612 393 611 388 612 392 613 392 613 388 612 389 614 392 613 389 614 391 615 391 615 389 614 390 616 391 617 390 618 438 619 438 619 390 618 405 620 438 619 405 620 437 621 437 621 405 620 406 622 437 621 406 622 436 623 436 623 406 622 407 624 436 623 407 624 435 625 435 625 407 624 408 626 435 625 408 626 434 627 434 627 408 626 409 628 434 627 409 628 433 629 433 629 409 628 410 630 433 629 410 630 432 631 432 631 410 630 411 632 432 631 411 632 431 633 431 633 411 632 412 634 431 633 412 634 430 635 430 635 412 634 413 636 430 635 413 636 429 637 429 637 413 636 414 638 429 637 414 638 428 639 428 639 414 638 415 640 428 639 415 640 427 641 427 641 415 640 416 642 427 641 416 642 426 643 426 643 416 642 417 644 426 643 417 644 425 645 425 645 417 644 418 646 425 645 418 646 424 647 424 647 418 646 419 648 424 647 419 648 423 649 423 649 419 648 420 650 423 649 420 650 422 651 422 651 420 650 421 652 422 651 421 652 340 653 340 653 421 652 311 654 438 655 422 656 391 657 391 657 422 656 340 658 391 657 340 658 359 659 359 659 340 658 326 660 359 659 326 660 360 661 360 661 326 660 376 662 360 661 376 662 361 663 361 663 376 662 375 664 361 663 375 664 362 665 362 665 375 664 374 666 362 665 374 666 363 667 363 667 374 666 373 668 363 667 373 668 364 669 364 669 373 668 372 670 364 669 372 670 365 671 365 671 372 670 371 672 365 671 371 672 366 673 366 673 371 672 370 674 366 673 370 674 367 675 367 675 370 674 369 676 367 675 369 676 368 677 422 656 438 655 423 678 423 678 438 655 437 679 423 678 437 679 424 680 424 680 437 679 436 681 424 680 436 681 425 682 425 682 436 681 435 683 425 682 435 683 426 684 426 684 435 683 434 685 426 684 434 685 427 686 427 686 434 685 433 687 427 686 433 687 428 688 428 688 433 687 432 689 428 688 432 689 429 690 429 690 432 689 431 691 429 690 431 691 430 692 339 693 338 694 340 658 340 658 338 694 337 695 340 658 337 695 336 696 336 696 335 697 340 658 340 658 335 697 334 698 340 658 334 698 333 699 340 658 333 699 326 660 326 660 333 699 332 700 326 660 332 700 331 701 331 701 330 702 326 660 326 660 330 702 329 703 326 660 329 703 328 704 328 704 327 705 326 660 404 706 403 707 359 659 359 659 403 707 402 708 359 659 402 708 401 709 401 709 400 710 359 659 359 659 400 710 399 711 359 659 399 711 398 712 359 659 398 712 391 657 391 657 398 712 397 713 391 657 397 713 396 714 396 714 395 715 391 657 391 657 395 715 394 716 391 657 394 716 393 717 393 717 392 718 391 657 310 719 541 720 208 721 208 721 541 720 439 722 208 721 439 722 209 723 209 723 439 722 440 724 209 723 440 724 210 725 210 725 440 724 441 726 210 725 441 726 211 727 211 727 441 726 442 728 211 727 442 728 212 729 212 729 442 728 443 730 212 729 443 730 213 731 213 731 443 730 444 732 213 731 444 732 214 733 214 733 444 732 445 734 214 733 445 734 215 735 215 735 445 734 446 736 215 735 446 736 216 737 216 737 446 736 447 738 216 737 447 738 217 739 217 739 447 738 448 740 217 739 448 740 218 741 218 741 448 740 449 742 218 741 449 742 219 743 219 743 449 742 450 744 219 743 450 744 220 745 220 745 450 744 451 746 220 745 451 746 221 747 221 747 451 746 452 748 221 747 452 748 222 749 222 749 452 748 453 750 222 749 453 750 223 751 223 751 453 750 454 752 223 751 454 752 224 753 224 753 454 752 455 754 224 753 455 754 225 755 225 755 455 754 456 756 225 755 456 756 226 757 226 757 456 756 457 758 226 757 457 758 227 759 227 759 457 758 458 760 227 759 458 760 228 761 228 761 458 760 459 762 228 761 459 762 229 763 229 763 459 762 460 764 229 763 460 764 230 765 230 765 460 764 461 766 230 765 461 766 231 767 231 767 461 766 462 768 231 767 462 768 232 769 232 769 462 768 463 770 232 769 463 770 233 771 233 771 463 770 464 772 233 771 464 772 234 773 234 773 464 772 465 774 234 773 465 774 235 775 235 775 465 774 466 776 235 775 466 776 236 777 236 777 466 776 467 778 236 777 467 778 237 779 237 779 467 778 468 780 237 779 468 780 238 781 238 781 468 780 469 782 238 781 469 782 239 783 239 783 469 782 470 784 239 783 470 784 240 785 240 785 470 784 471 786 240 785 471 786 241 787 241 787 471 786 472 788 241 787 472 788 242 789 242 789 472 788 473 790 242 789 473 790 243 791 243 791 473 790 474 792 243 791 474 792 244 793 244 793 474 792 475 794 244 793 475 794 245 795 245 795 475 794 476 796 245 795 476 796 246 797 246 797 476 796 477 798 246 797 477 798 247 799 247 799 477 798 478 800 247 799 478 800 248 801 248 801 478 800 479 802 248 801 479 802 249 803 249 803 479 802 480 804 249 803 480 804 250 805 250 805 480 804 481 806 250 805 481 806 251 807 251 807 481 806 482 808 251 807 482 808 252 809 252 809 482 808 483 810 252 809 483 810 253 811 253 811 483 810 484 812 253 811 484 812 254 813 254 813 484 812 485 814 254 813 485 814 255 815 255 815 485 814 486 816 255 815 486 816 256 817 256 817 486 816 487 818 256 817 487 818 257 819 257 819 487 818 488 820 257 819 488 820 258 821 258 821 488 820 489 822 258 821 489 822 259 823 259 823 489 822 490 824 259 823 490 824 260 825 260 825 490 824 491 826 260 825 491 826 261 827 261 827 491 826 492 828 261 827 492 828 262 829 262 829 492 828 493 830 262 829 493 830 263 831 263 831 493 830 494 832 263 831 494 832 264 833 264 833 494 832 495 834 264 833 495 834 265 835 265 835 495 834 496 836 265 835 496 836 266 837 266 837 496 836 497 838 266 837 497 838 267 839 267 839 497 838 498 840 267 839 498 840 268 841 268 841 498 840 499 842 268 841 499 842 269 843 269 843 499 842 500 844 269 843 500 844 270 845 270 845 500 844 501 846 270 845 501 846 271 847 271 847 501 846 502 848 271 847 502 848 272 849 272 849 502 848 503 850 272 849 503 850 273 851 273 851 503 850 504 852 273 851 504 852 274 853 274 853 504 852 505 854 274 853 505 854 275 855 275 855 505 854 506 856 275 855 506 856 276 857 276 857 506 856 507 858 276 857 507 858 277 859 277 859 507 858 508 860 277 859 508 860 278 861 278 861 508 860 509 862 278 861 509 862 279 863 279 863 509 862 510 864 279 863 510 864 280 865 280 865 510 864 511 866 280 865 511 866 281 867 281 867 511 866 512 868 281 867 512 868 282 869 282 869 512 868 513 870 282 869 513 870 283 871 283 871 513 870 514 872 283 871 514 872 284 873 284 873 514 872 515 874 284 873 515 874 285 875 285 875 515 874 516 876 285 875 516 876 286 877 286 877 516 876 517 878 286 877 517 878 287 879 287 879 517 878 518 880 287 879 518 880 288 881 288 881 518 880 519 882 288 881 519 882 289 883 289 883 519 882 520 884 289 883 520 884 290 885 290 885 520 884 521 886 290 885 521 886 291 887 291 887 521 886 522 888 291 887 522 888 292 889 292 889 522 888 523 890 292 889 523 890 293 891 293 891 523 890 524 892 293 891 524 892 294 893 294 893 524 892 525 894 294 893 525 894 295 895 295 895 525 894 526 896 295 895 526 896 296 897 296 897 526 896 527 898 296 897 527 898 297 899 297 899 527 898 528 900 297 899 528 900 298 901 298 901 528 900 529 902 298 901 529 902 299 903 299 903 529 902 530 904 299 903 530 904 300 905 300 905 530 904 531 906 300 905 531 906 301 907 301 907 531 906 532 908 301 907 532 908 302 909 302 909 532 908 533 910 302 909 533 910 303 911 303 911 533 910 534 912 303 911 534 912 304 913 304 913 534 912 535 914 304 913 535 914 305 915 305 915 535 914 536 916 305 915 536 916 306 917 306 917 536 916 537 918 306 917 537 918 307 919 307 919 537 918 538 920 307 919 538 920 308 921 308 921 538 920 539 922 308 921 539 922 309 923 309 923 539 922 540 924 309 923 540 924 310 719 310 719 540 924 541 720 541 925 384 926 439 927 439 927 384 926 383 928 439 927 383 928 382 929 540 930 405 931 541 925 541 925 405 931 389 932 541 925 389 932 388 933 539 934 408 935 540 930 540 930 408 935 407 936 540 930 407 936 406 937 538 938 494 939 539 934 539 934 494 939 413 940 539 934 413 940 412 941 494 939 538 938 495 942 495 942 538 938 537 943 495 942 537 943 496 944 496 944 537 943 536 945 496 944 536 945 497 946 497 946 536 945 535 947 497 946 535 947 498 948 498 948 535 947 534 949 498 948 534 949 499 950 499 950 534 949 533 951 499 950 533 951 500 952 500 952 533 951 532 953 500 952 532 953 501 954 501 954 532 953 531 955 501 954 531 955 502 956 502 956 531 955 530 957 502 956 530 957 503 958 503 958 530 957 529 959 503 958 529 959 504 960 504 960 529 959 528 961 504 960 528 961 505 962 505 962 528 961 527 963 505 962 527 963 506 964 506 964 527 963 526 965 506 964 526 965 507 966 507 966 526 965 525 967 507 966 525 967 508 968 508 968 525 967 524 969 508 968 524 969 509 970 509 970 524 969 523 971 509 970 523 971 510 972 510 972 523 971 522 973 510 972 522 973 511 974 511 974 522 973 521 975 511 974 521 975 512 976 512 976 521 975 520 977 512 976 520 977 513 978 513 978 520 977 519 979 513 978 519 979 514 980 514 980 519 979 518 981 514 980 518 981 515 982 515 982 518 981 517 983 515 982 517 983 516 984 493 985 417 986 494 939 494 939 417 986 416 987 494 939 416 987 415 988 492 989 420 990 493 985 493 985 420 990 419 991 493 985 419 991 418 992 491 993 315 994 492 989 492 989 315 994 314 995 492 989 314 995 313 996 490 997 320 998 491 993 491 993 320 998 319 999 491 993 319 999 318 1000 489 1001 341 1002 490 997 490 997 341 1002 324 1003 490 997 324 1003 323 1004 341 1002 489 1001 342 1005 342 1005 489 1001 488 1006 342 1005 488 1006 487 1007 487 1007 486 1008 342 1005 342 1005 486 1008 485 1009 342 1005 485 1009 484 1010 484 1010 483 1011 342 1005 342 1005 483 1011 482 1012 342 1005 482 1012 481 1013 481 1013 480 1014 342 1005 342 1005 480 1014 343 1015 343 1015 480 1014 479 1016 343 1015 479 1016 478 1017 478 1017 477 1018 343 1015 343 1015 477 1018 344 1019 344 1019 477 1018 476 1020 344 1019 476 1020 475 1021 344 1019 475 1021 345 1022 345 1022 475 1021 474 1023 345 1022 474 1023 473 1024 345 1022 473 1024 346 1025 346 1025 473 1024 472 1026 346 1025 472 1026 471 1027 471 1027 470 1028 346 1025 346 1025 470 1028 347 1029 347 1029 470 1028 469 1030 347 1029 469 1030 468 1031 347 1029 468 1031 348 1032 348 1032 468 1031 467 1033 348 1032 467 1033 466 1034 348 1032 466 1034 349 1035 349 1035 466 1034 465 1036 349 1035 465 1036 464 1037 464 1037 463 1038 349 1035 349 1035 463 1038 462 1039 349 1035 462 1039 461 1040 461 1040 460 1041 349 1035 349 1035 460 1041 459 1042 349 1035 459 1042 458 1043 458 1043 457 1044 349 1035 349 1035 457 1044 456 1045 349 1035 456 1045 455 1046 455 1046 454 1047 349 1035 349 1035 454 1047 453 1048 349 1035 453 1048 452 1049 452 1049 451 1050 349 1035 349 1035 451 1050 450 1051 349 1035 450 1051 449 1052 449 1052 448 1053 349 1035 349 1035 448 1053 447 1054 349 1035 447 1054 446 1055 446 1055 445 1056 349 1035 349 1035 445 1056 444 1057 349 1035 444 1057 443 1058 443 1058 442 1059 349 1035 349 1035 442 1059 350 1060 350 1060 442 1059 351 1061 351 1061 442 1059 352 1062 352 1062 442 1059 353 1063 353 1063 442 1059 354 1064 354 1064 442 1059 355 1065 355 1065 442 1059 356 1066 356 1066 442 1059 377 1067 356 1066 377 1067 357 1068 357 1068 377 1067 358 1069 442 1059 441 1070 377 1067 377 1067 441 1070 440 1071 377 1067 440 1071 439 927 325 1072 324 1003 341 1002 323 1004 322 1073 490 997 490 997 322 1073 321 1074 490 997 321 1074 320 998 318 1000 317 1075 491 993 491 993 317 1075 316 1076 491 993 316 1076 315 994 313 996 312 1077 492 989 492 989 312 1077 421 1078 492 989 421 1078 420 990 312 1077 311 1079 421 1078 418 992 417 986 493 985 415 988 414 1080 494 939 494 939 414 1080 413 940 412 941 411 1081 539 934 539 934 411 1081 410 1082 539 934 410 1082 409 1083 409 1083 408 935 539 934 406 937 405 931 540 930 405 931 390 1084 389 932 388 933 387 1085 541 925 541 925 387 1085 386 1086 541 925 386 1086 385 1087 385 1087 384 926 541 925 382 929 381 1088 439 927 439 927 381 1088 380 1089 439 927 380 1089 379 1090 379 1090 378 1091 439 927 439 927 378 1091 377 1067</p>
        </triangles>
      </mesh>
    </geometry>
  </library_geometries>
  <library_visual_scenes>
    <visual_scene id="Scene" name="Scene">
      <node id="lidar-node" name="lidar" type="NODE">
        <instance_geometry url="#lidar-mesh">
          <bind_material>
            <technique_common>
              <instance_material symbol="Opaque_254_101_27_" target="#Opaque_254_101_27_"/>
            </technique_common>
          </bind_material>
        </instance_geometry>
      </node>
    </visual_scene>
  </library_visual_scenes>
  <scene>
    <instance_visual_scene url="#Scene"/>
  </scene>
</COLLADA>
