<?xml version="1.0" encoding="utf-8"?>
<COLLADA xmlns="http://www.collada.org/2005/11/COLLADASchema" version="1.4.1">
  <asset>
    <contributor>
      <authoring_tool>Fusion URDF/XACRO Exporter</authoring_tool>
    </contributor>
    <created>2026-05-12T14:25:34Z</created>
    <modified>2026-05-12T14:25:34Z</modified>
    <unit name="meter" meter="1.0"/>
    <up_axis>Z_UP</up_axis>
  </asset>
  <library_effects>
    <effect id="Opaque_2_61_210_-effect">
      <profile_COMMON>
        <technique sid="common">
          <lambert>
            <emission><color>0 0 0 1</color></emission>
            <ambient><color>0.0000 0.0000 0.0000 1</color></ambient>
            <diffuse><color>0.0078 0.2392 0.8235 1</color></diffuse>
            <reflective><color>0 0 0 1</color></reflective>
            <transparent opaque="A_ONE"><color>1 1 1 1</color></transparent>
            <transparency><float>1</float></transparency>
          </lambert>
        </technique>
      </profile_COMMON>
    </effect>
  </library_effects>
  <library_materials>
    <material id="Opaque_2_61_210_" name="Opaque(2,61,210)">
      <instance_effect url="#Opaque_2_61_210_-effect"/>
    </material>
  </library_materials>
  <library_geometries>
    <geometry id="mag-mesh" name="mag">
      <mesh>
        <source id="mag-mesh-positions">
          <float_array id="mag-mesh-positions-array" count="24">-0.015000 0.010000 -0.002500 0.015000 0.010000 -0.002500 0.015000 -0.010000 -0.002500 -0.015000 -0.010000 -0.002500 0.015000 0.010000 0.002500 0.015000 -0.010000 0.002500 -0.015000 -0.010000 0.002500 -0.015000 0.010000 0.002500</float_array>
          <technique_common>
            <accessor source="#mag-mesh-positions-array" count="8" stride="3">
              <param name="X" type="float"/>
              <param name="Y" type="float"/>
              <param name="Z" type="float"/>
            </accessor>
          </technique_common>
        </source>
        <source id="mag-mesh-normals">
          <float_array id="mag-mesh-normals-array" count="72">0.000000 0.000000 -1.000000 0.000000 0.000000 -1.000000 0.000000 0.000000 -1.000000 0.000000 0.000000 -1.000000 1.000000 0.000000 -0.000000 1.000000 0.000000 -0.000000 1.000000 0.000000 -0.000000 1.000000 0.000000 -0.000000 0.000000 -1.000000 0.000000 0.000000 -1.000000 0.000000 0.000000 -1.000000 0.000000 0.000000 -1.000000 0.000000 -1.000000 0.000000 0.000000 -1.000000 0.000000 0.000000 -1.000000 0.000000 0.000000 -1.000000 0.000000 0.000000 0.000000 1.000000 0.000000 0.000000 1.000000 0.000000 0.000000 1.000000 0.000000 0.000000 1.000000 0.000000 0.000000 0.000000 1.000000 0.000000 0.000000 1.000000 0.000000 0.000000 1.000000 0.000000 0.000000 1.000000</float_array>
          <technique_common>
            <accessor source="#mag-mesh-normals-array" count="24" stride="3">
              <param name="X" type="float"/>
              <param name="Y" type="float"/>
              <param name="Z" type="float"/>
            </accessor>
          </technique_common>
        </source>
        <vertices id="mag-mesh-vertices">
          <input semantic="POSITION" source="#mag-mesh-positions"/>
        </vertices>
        <triangles material="Opaque_2_61_210_" count="12">
          <input semantic="VERTEX" source="#mag-mesh-vertices" offset="0"/>
          <input semantic="NORMAL" source="#mag-mesh-normals" offset="1"/>
          <p>0 0 1 1 3 2 3 2 1 1 2 3 4 4 5 5 1 6 1 6 5 5 2 7 5 8 6 9 2 10 2 10 6 9 3 11 6 12 7 13 3 14 3 14 7 13 0 15 7 16 4 17 0 18 0 18 4 17 1 19 4 20 7 21 5 22 5 22 7 21 6 23</p>
        </triangles>
      </mesh>
    </geometry>
  </library_geometries>
  <library_visual_scenes>
    <visual_scene id="Scene" name="Scene">
      <node id="mag-node" name="mag" type="NODE">
        <instance_geometry url="#mag-mesh">
          <bind_material>
            <technique_common>
              <instance_material symbol="Opaque_2_61_210_" target="#Opaque_2_61_210_"/>
            </technique_common>
          </bind_material>
        </instance_geometry>
      </node>
    </visual_scene>
  </library_visual_scenes>
  <scene>
    <instance_visual_scene url="#Scene"/>
  </scene>
</COLLADA>
